<svg width="146" height="50" viewBox="0 0 146 50" fill="none" xmlns="http://www.w3.org/2000/svg">
<path d="M66 9H2" stroke="#FF881A"/>
<path d="M146 9H82" stroke="#FF881A"/>
<path d="M8 2L1 9L8 16" stroke="#FF881A" stroke-linecap="round" stroke-linejoin="round"/>
<circle cx="74" cy="9" r="8" fill="#FF881A" fill-opacity="0.3" stroke="#FF881A"/>
<path d="M100.585 45.9563L90.2274 49.7699C89.164 50.1616 87.9641 50.0484 87.0182 49.467C83.4055 47.2468 80.233 43.9268 77.8435 39.8667C77.4674 39.2274 76.3225 37.2824 77.5602 36.0517C77.5607 36.0507 77.5721 36.0397 77.5731 36.0388C78.3805 35.2447 79.6583 35.0704 80.6811 35.615C80.697 35.6236 80.7129 35.6327 80.7277 35.6427L82.4249 36.7526L77.2778 23.7945C76.7344 22.4262 77.4267 20.7884 78.7894 20.218C79.4504 19.9394 80.1313 19.9284 80.757 20.1816C81.7351 20.5772 82.5604 21.6064 83.2095 23.2398L85.0476 27.867C85.3682 27.4251 85.8193 27.0864 86.3592 26.9024C87.4777 26.513 88.7139 26.8991 89.4389 27.7739C89.759 27.2751 90.2394 26.8933 90.8234 26.6946C91.9276 26.31 93.1474 26.6879 93.8679 27.5474C94.1811 27.0711 94.6475 26.7132 95.2078 26.5169C96.5541 26.0515 98.0761 26.7471 98.6006 28.0677L101.481 35.3183C102.385 37.5949 102.895 39.9837 102.997 42.4189C103.062 43.9793 102.093 45.4007 100.585 45.9558V45.9563ZM78.9154 36.5476C78.7378 36.6131 78.5735 36.7144 78.4356 36.85C78.0227 37.2609 78.1795 38.0803 78.8936 39.2934C81.1863 43.1896 84.2203 46.3686 87.6678 48.4875C88.2931 48.8717 89.089 48.9452 89.7972 48.6849L100.154 44.8713C101.179 44.4943 101.837 43.5273 101.793 42.4653C101.696 40.1567 101.212 37.8911 100.355 35.733L97.4752 28.4824C97.1834 27.7476 96.3497 27.3563 95.6167 27.6095C95.248 27.7352 94.9562 27.9951 94.7934 28.3372C94.6307 28.6792 94.6178 29.061 94.7572 29.4121L95.2371 30.6199C95.3562 30.9195 95.2004 31.2549 94.8892 31.3696C94.5781 31.4842 94.2297 31.3342 94.1106 31.0346L93.1821 28.6974C92.8764 27.9277 92.003 27.5192 91.2348 27.7868C90.8507 27.922 90.5445 28.1914 90.3748 28.5488C90.2046 28.9062 90.1917 29.3056 90.3376 29.673L90.9941 31.3256C91.1132 31.6252 90.9574 31.9606 90.6463 32.0752C90.3351 32.1899 89.9868 32.0399 89.8677 31.7403L88.7466 28.9186C88.4365 28.1379 87.5502 27.7232 86.7706 27.9946C86.3805 28.1317 86.0704 28.405 85.8977 28.7681C85.725 29.1312 85.7116 29.5364 85.8595 29.909L86.8693 32.4507C86.9884 32.7503 86.8326 33.0857 86.5215 33.2004C86.2103 33.315 85.8619 33.165 85.7428 32.8655L82.0825 23.6545C81.4265 22.0029 80.7456 21.4363 80.2896 21.2523C79.9655 21.1214 79.6325 21.1315 79.2703 21.2829C78.4946 21.6078 78.0897 22.5877 78.4043 23.3798L84.7469 39.3469C84.866 39.6464 84.7101 39.9818 84.399 40.0965C84.0879 40.2111 83.7395 40.0611 83.6204 39.7616L83.1782 38.6484L80.0752 36.6193C79.7075 36.4315 79.2827 36.4129 78.9154 36.5481V36.5476Z" fill="#FF881A"/>
</svg>
