<svg width="329" height="363" viewBox="0 0 329 363" fill="none" xmlns="http://www.w3.org/2000/svg">
<path fill-rule="evenodd" clip-rule="evenodd" d="M274.095 75.8228C282.012 73.5622 289.716 69.8198 295.771 63.7723C316.951 42.594 309.859 1.14771 309.859 1.14771C309.859 1.14771 268.409 -5.96763 247.229 15.2346C238.145 24.3178 234.262 37.1292 232.789 48.8001C211.989 39.2962 188.863 34 164.5 34C73.6492 34 0 107.649 0 198.5C0 289.351 73.6492 363 164.5 363C255.351 363 329 289.351 329 198.5C329 149.746 307.791 105.946 274.095 75.8228Z" fill="white"/>
<circle cx="164.653" cy="198.653" r="146" fill="white" stroke="#FF881A" stroke-width="8"/>
<path d="M288.868 56.8679C273.836 71.8827 244.469 66.8551 244.469 66.8551C244.469 66.8551 239.441 37.4708 254.456 22.456C269.471 7.42414 298.855 12.4687 298.855 12.4687C298.855 12.4687 303.883 41.853 288.868 56.8679Z" fill="#A5CC2B"/>
</svg>
