<svg width="47" height="67" viewBox="0 0 47 67" fill="none" xmlns="http://www.w3.org/2000/svg">
<g clip-path="url(#clip0_360_84454)">
<path d="M38.7138 15.0089C33.662 19.9272 23.9374 18.127 23.9374 18.127C23.9374 18.127 22.3999 8.35495 27.4517 3.43665C32.4992 -1.47734 42.2238 0.322879 42.2238 0.322879C42.2238 0.322879 43.7613 10.0949 38.7095 15.0132L38.7138 15.0089Z" fill="#A5CC2B"/>
<path d="M23.6962 66.9958C36.3072 66.9958 46.5305 56.7726 46.5305 44.1615C46.5305 31.5504 36.3072 21.3271 23.6962 21.3271C11.0851 21.3271 0.861816 31.5504 0.861816 44.1615C0.861816 56.7726 11.0851 66.9958 23.6962 66.9958Z" fill="#FF881A"/>
<path fill-rule="evenodd" clip-rule="evenodd" d="M14.6535 40.778C15.5399 39.8917 16.977 39.8917 17.8633 40.778L23.6516 46.5663C24.5379 47.4527 24.5379 48.8897 23.6516 49.7761C22.7652 50.6624 21.3282 50.6624 20.4418 49.7761L14.6535 43.9878C13.7672 43.1015 13.7672 41.6644 14.6535 40.778Z" fill="white"/>
<path fill-rule="evenodd" clip-rule="evenodd" d="M32.7435 38.2199C33.6296 39.1064 33.6292 40.5435 32.7427 41.4296L24.0646 50.1034C23.178 50.9895 21.7409 50.9892 20.8548 50.1026C19.9687 49.216 19.969 47.779 20.8556 46.8928L29.5337 38.2191C30.4203 37.3329 31.8573 37.3333 32.7435 38.2199Z" fill="white"/>
</g>
<defs>
<clipPath id="clip0_360_84454">
<rect width="45.673" height="67" fill="white" transform="translate(0.861816)"/>
</clipPath>
</defs>
</svg>
