<svg width="118" height="112" viewBox="0 0 118 112" fill="none" xmlns="http://www.w3.org/2000/svg">
<path fill-rule="evenodd" clip-rule="evenodd" d="M52.699 24.702C50.0616 24.702 47.9225 26.8411 47.9225 29.4785V52.4287L45.5446 53.3121C23.204 61.6108 7.29668 83.1223 7.29668 108.344C7.29668 110.359 5.66326 111.993 3.64834 111.993C1.63342 111.993 0 110.359 0 108.344C0 80.8792 16.7741 57.3436 40.6258 47.4085V29.4785C40.6258 22.8112 46.0318 17.4053 52.699 17.4053H78.4434C85.0363 17.4053 90.4117 22.6953 90.5087 29.297C90.5087 29.2967 90.5087 29.2972 90.5087 29.297C90.5087 29.2972 90.5087 29.2983 90.5087 29.2986L90.7773 47.1834C114.928 56.9829 131.97 80.6742 131.97 108.352C131.97 110.367 130.337 112 128.322 112C126.307 112 124.673 110.367 124.673 108.352C124.673 82.9478 108.527 61.3023 85.9268 53.1369L83.5564 52.2805L83.2128 29.4049C83.1748 26.7921 81.0502 24.702 78.4434 24.702H52.699Z" fill="#FF881A"/>
<path d="M65.5302 48.5717C71.5337 48.5717 76.4005 43.7049 76.4005 37.7014C76.4005 31.6979 71.5337 26.8311 65.5302 26.8311C59.5267 26.8311 54.6599 31.6979 54.6599 37.7014C54.6599 43.7049 59.5267 48.5717 65.5302 48.5717Z" fill="#FF881A"/>
<path fill-rule="evenodd" clip-rule="evenodd" d="M59.7585 32.49C60.7555 31.4929 62.372 31.4929 63.3691 32.49L66.8434 35.9643C67.8404 36.9613 67.8404 38.5778 66.8434 39.5748C65.8464 40.5718 64.2299 40.5718 63.2328 39.5748L59.7585 36.1005C58.7615 35.1035 58.7615 33.487 59.7585 32.49Z" fill="white"/>
<path d="M34.4924 77.0975C33.5082 76.1133 32.6881 74.9577 32.1513 73.6604C31.1149 71.1628 30.7347 67.4126 35.6032 64.6614C35.6032 64.6614 46.6749 58.257 55.5546 56.9896C55.9199 56.9374 56.2777 56.8777 56.6356 56.7957C58.0895 56.4602 63.0997 55.8489 64.2777 62.9019C64.3746 63.4685 64.4044 64.0426 64.4044 64.6167L64.3075 98.9127C64.3075 99.114 64.3075 99.3153 64.3224 99.5166C64.3597 100.277 64.382 102.73 62.9804 103.274C62.9804 103.274 61.4147 104.02 59.0662 101.671L34.4924 77.0975Z" fill="#FF881A"/>
<path d="M67.5134 64.8197C67.5134 63.4255 67.752 62.0313 68.2888 60.7414C69.3251 58.2438 71.7035 55.3212 77.0864 56.8198C77.0864 56.8198 89.4404 60.1152 96.6202 65.4981C96.911 65.7143 97.2092 65.9306 97.5224 66.1244C98.7898 66.9147 102.764 70.0237 98.6109 75.8466C98.2754 76.3163 97.8952 76.7412 97.4925 77.1438L73.1722 101.322C73.0306 101.464 72.8889 101.613 72.7547 101.762C72.2403 102.329 70.5255 104.074 69.1462 103.47C69.1462 103.47 67.5134 102.888 67.5134 99.5704V64.8197Z" fill="#FF881A"/>
<path d="M22.2725 110.282C20.8783 110.282 19.4841 110.044 18.1943 109.507C15.6967 108.47 12.7741 106.092 14.2726 100.709C14.2726 100.709 17.568 88.3551 22.951 81.1753C23.1672 80.8845 23.3834 80.5863 23.5773 80.2731C24.3676 79.0057 27.4766 75.0318 33.2994 79.1846C33.7692 79.5201 34.1941 79.9004 34.5967 80.303L58.7754 104.623C58.917 104.765 59.0662 104.907 59.2153 105.041C59.7819 105.555 61.5265 107.27 60.9226 108.649C60.9226 108.649 60.3411 110.282 57.0233 110.282H22.2725Z" fill="#FF881A"/>
<path d="M97.6193 80.3477C98.6034 79.3636 99.7591 78.5434 101.056 78.0066C103.554 76.9703 107.304 76.5901 110.055 81.4586C110.055 81.4586 116.46 92.5302 117.727 101.41C117.779 101.775 117.839 102.133 117.921 102.491C118.257 103.945 118.868 108.955 111.815 110.133C111.248 110.23 110.674 110.26 110.1 110.26L75.8041 110.163C75.6028 110.163 75.4015 110.163 75.2002 110.178C74.4397 110.215 71.9868 110.237 71.4425 108.836C71.4425 108.836 70.697 107.27 73.0455 104.922L97.6193 80.3477Z" fill="#FF881A"/>
<path fill-rule="evenodd" clip-rule="evenodd" d="M21.1669 80.3701C21.7729 79.3229 23.113 78.9653 24.1601 79.5714L28.0893 81.8453C29.1364 82.4514 29.494 83.7915 28.8879 84.8386C28.2819 85.8857 26.9418 86.2433 25.8947 85.6373L21.9655 83.3633C20.9184 82.7573 20.5608 81.4172 21.1669 80.3701Z" fill="white"/>
<path fill-rule="evenodd" clip-rule="evenodd" d="M15.6994 90.0064C16.18 88.8962 17.4697 88.3858 18.58 88.8664L22.7477 90.6707C23.858 91.1513 24.3684 92.441 23.8877 93.5513C23.4071 94.6615 22.1174 95.172 21.0071 94.6913L16.8394 92.887C15.7291 92.4064 15.2187 91.1167 15.6994 90.0064Z" fill="white"/>
<path fill-rule="evenodd" clip-rule="evenodd" d="M12.0513 101.068C12.2201 99.8697 13.3282 99.0355 14.5262 99.2043L19.022 99.8381C20.22 100.007 21.0542 101.115 20.8854 102.313C20.7165 103.511 19.6084 104.345 18.4104 104.176L13.9147 103.543C12.7167 103.374 11.8824 102.266 12.0513 101.068Z" fill="white"/>
<path fill-rule="evenodd" clip-rule="evenodd" d="M111.756 80.364C112.286 81.4512 111.835 82.7628 110.748 83.2935L106.67 85.2842C105.582 85.8149 104.271 85.3637 103.74 84.2765C103.209 83.1892 103.661 81.8776 104.748 81.3469L108.826 79.3563C109.913 78.8256 111.225 79.2768 111.756 80.364Z" fill="white"/>
<path fill-rule="evenodd" clip-rule="evenodd" d="M116.534 90.3444C116.938 91.4848 116.341 92.7368 115.201 93.1408L110.928 94.6543C109.788 95.0583 108.536 94.4614 108.132 93.321C107.728 92.1806 108.325 90.9286 109.465 90.5246L113.737 89.0111C114.878 88.6071 116.13 89.2041 116.534 90.3444Z" fill="white"/>
<path fill-rule="evenodd" clip-rule="evenodd" d="M119.413 101.636C119.498 102.843 118.589 103.891 117.382 103.976L112.857 104.297C111.65 104.383 110.602 103.474 110.517 102.267C110.431 101.06 111.34 100.012 112.547 99.9268L117.073 99.6062C118.28 99.5207 119.327 100.43 119.413 101.636Z" fill="white"/>
<path fill-rule="evenodd" clip-rule="evenodd" d="M55.5188 55.0893C56.6877 54.7772 57.8883 55.4718 58.2004 56.6407L59.3709 61.0246C59.683 62.1935 58.9884 63.3941 57.8195 63.7062C56.6507 64.0183 55.4501 63.3237 55.138 62.1548L53.9674 57.7709C53.6553 56.602 54.3499 55.4014 55.5188 55.0893Z" fill="white"/>
<path fill-rule="evenodd" clip-rule="evenodd" d="M44.8399 58.0391C45.9648 57.5939 47.2377 58.1449 47.6829 59.2698L49.353 63.4897C49.7982 64.6147 49.2471 65.8875 48.1222 66.3328C46.9972 66.778 45.7244 66.2269 45.2792 65.102L43.6091 60.8821C43.1639 59.7571 43.7149 58.4843 44.8399 58.0391Z" fill="white"/>
<path fill-rule="evenodd" clip-rule="evenodd" d="M34.442 63.2758C35.4084 62.548 36.7819 62.7414 37.5097 63.7079L40.2385 67.3313C40.9663 68.2978 40.7728 69.6712 39.8064 70.399C38.8399 71.1269 37.4665 70.9334 36.7387 69.967L34.0099 66.3435C33.2821 65.3771 33.4755 64.0036 34.442 63.2758Z" fill="white"/>
<path fill-rule="evenodd" clip-rule="evenodd" d="M97.424 63.8139C98.472 64.4185 98.8315 65.7581 98.227 66.8061L95.9605 70.7352C95.356 71.7832 94.0163 72.1427 92.9684 71.5382C91.9204 70.9336 91.5609 69.594 92.1654 68.546L94.4319 64.6169C95.0364 63.5689 96.3761 63.2094 97.424 63.8139Z" fill="white"/>
<path fill-rule="evenodd" clip-rule="evenodd" d="M87.789 58.3549C88.8997 58.8346 89.4112 60.1239 88.9315 61.2346L87.1347 65.3948C86.655 66.5055 85.3657 67.017 84.255 66.5373C83.1444 66.0576 82.6328 64.7683 83.1125 63.6577L84.9094 59.4974C85.3891 58.3867 86.6783 57.8752 87.789 58.3549Z" fill="white"/>
<path fill-rule="evenodd" clip-rule="evenodd" d="M76.7366 54.7083C77.9346 54.8775 78.7686 55.9857 78.5994 57.1837L77.9657 61.672C77.7966 62.8699 76.6883 63.704 75.4903 63.5348C74.2924 63.3657 73.4584 62.2574 73.6275 61.0594L74.2612 56.5711C74.4304 55.3732 75.5386 54.5392 76.7366 54.7083Z" fill="white"/>
<path fill-rule="evenodd" clip-rule="evenodd" d="M72.3084 30.9528C73.3054 31.9499 73.3054 33.5664 72.3084 34.5634L67.0969 39.7749C66.0999 40.7719 64.4834 40.7719 63.4864 39.7749C62.4893 38.7779 62.4893 37.1614 63.4864 36.1643L68.6978 30.9528C69.6949 29.9558 71.3114 29.9558 72.3084 30.9528Z" fill="white"/>
<path d="M78.6074 13.1944C74.2235 17.5783 65.6495 16.1095 65.6495 16.1095C65.6495 16.1095 64.1807 7.53552 68.5647 3.1516C72.9486 -1.23232 81.5226 0.23644 81.5226 0.23644C81.5226 0.23644 82.9913 8.81043 78.6074 13.1944Z" fill="#A5CC2B"/>
</svg>
