<svg width="65" height="60" viewBox="0 0 65 60" fill="none" xmlns="http://www.w3.org/2000/svg">
<circle cx="28" cy="32" r="27" fill="#FFF6EE" stroke="#FF881A" stroke-width="2"/>
<path d="M35.8076 18.8652C37.5117 20.5693 36.3341 24.5097 34.2649 26.5789C32.1956 28.6482 29.1368 28.9442 27.4327 27.2401C25.7286 25.536 26.245 22.6976 28.3143 20.6283C30.3835 18.5591 34.1035 17.1611 35.8076 18.8652Z" fill="#85DC58"/>
<path d="M29.8649 24.3244C30.4955 23.5676 31.3784 22.4325 33.2703 20.9189" stroke="#5DAA36" stroke-width="1.6" stroke-linecap="round"/>
<path d="M29.2907 26.4093C28.9511 24.8267 27.6823 21.0785 25.3243 18.7466" stroke="#8A4C14" stroke-width="3" stroke-linecap="round"/>
<circle cx="27.5946" cy="33.4054" r="10.5946" fill="#FF881A"/>
<path fill-rule="evenodd" clip-rule="evenodd" d="M22.5422 34.4254C22.8688 34.0743 23.3984 34.0743 23.7251 34.4254C25.8621 36.7222 29.3269 36.7222 31.464 34.4254C31.7906 34.0743 32.3202 34.0743 32.6468 34.4254C32.9735 34.7765 32.9735 35.3456 32.6468 35.6967C29.8565 38.6956 25.3325 38.6956 22.5422 35.6967C22.2155 35.3456 22.2155 34.7765 22.5422 34.4254Z" fill="#934600"/>
<path fill-rule="evenodd" clip-rule="evenodd" d="M24.1891 29.6216C24.816 29.6216 25.3242 30.0282 25.3242 30.5297V31.7405C25.3242 32.242 24.816 32.6486 24.1891 32.6486C23.5622 32.6486 23.054 32.242 23.054 31.7405V30.5297C23.054 30.0282 23.5622 29.6216 24.1891 29.6216Z" fill="#934600"/>
<path fill-rule="evenodd" clip-rule="evenodd" d="M30.9999 29.6216C31.6268 29.6216 32.1351 30.0282 32.1351 30.5297V31.7405C32.1351 32.242 31.6268 32.6486 30.9999 32.6486C30.373 32.6486 29.8648 32.242 29.8648 31.7405V30.5297C29.8648 30.0282 30.373 29.6216 30.9999 29.6216Z" fill="#934600"/>
<circle opacity="0.5" cx="28" cy="32" r="22.25" stroke="#FF881A" stroke-width="1.5"/>
<path d="M17.2186 17.7604C17.3153 17.4992 17.6847 17.4992 17.7814 17.7604L18.3974 19.4253C18.4278 19.5074 18.4926 19.5722 18.5747 19.6026L20.2396 20.2186C20.5008 20.3153 20.5008 20.6847 20.2396 20.7814L18.5747 21.3974C18.4926 21.4278 18.4278 21.4926 18.3974 21.5747L17.7814 23.2396C17.6847 23.5008 17.3153 23.5008 17.2186 23.2396L16.6026 21.5747C16.5722 21.4926 16.5074 21.4278 16.4253 21.3974L14.7604 20.7814C14.4992 20.6847 14.4992 20.3153 14.7604 20.2186L16.4253 19.6026C16.5074 19.5722 16.5722 19.5074 16.6026 19.4253L17.2186 17.7604Z" fill="#FF881A"/>
<path d="M42.2186 37.7604C42.3153 37.4992 42.6847 37.4992 42.7814 37.7604L43.3974 39.4253C43.4278 39.5074 43.4926 39.5722 43.5747 39.6026L45.2396 40.2186C45.5008 40.3153 45.5008 40.6847 45.2396 40.7814L43.5747 41.3974C43.4926 41.4278 43.4278 41.4926 43.3974 41.5747L42.7814 43.2396C42.6847 43.5008 42.3153 43.5008 42.2186 43.2396L41.6026 41.5747C41.5722 41.4926 41.5074 41.4278 41.4253 41.3974L39.7604 40.7814C39.4992 40.6847 39.4992 40.3153 39.7604 40.2186L41.4253 39.6026C41.5074 39.5722 41.5722 39.5074 41.6026 39.4253L42.2186 37.7604Z" fill="#FF881A"/>
<path d="M12.2186 25.7604C12.3153 25.4992 12.6847 25.4992 12.7814 25.7604L13.3974 27.4253C13.4278 27.5074 13.4926 27.5722 13.5747 27.6026L15.2396 28.2186C15.5008 28.3153 15.5008 28.6847 15.2396 28.7814L13.5747 29.3974C13.4926 29.4278 13.4278 29.4926 13.3974 29.5747L12.7814 31.2396C12.6847 31.5008 12.3153 31.5008 12.2186 31.2396L11.6026 29.5747C11.5722 29.4926 11.5074 29.4278 11.4253 29.3974L9.76035 28.7814C9.49917 28.6847 9.49917 28.3153 9.76035 28.2186L11.4253 27.6026C11.5074 27.5722 11.5722 27.5074 11.6026 27.4253L12.2186 25.7604Z" fill="#FF881A"/>
<rect x="28" width="37" height="22" rx="11" fill="#262C31"/>
<path d="M38.76 7.67V6.87H39.75V7.67H41.84V8.4H36.67V7.67H38.76ZM36.4 11.89C37.4133 11.89 38.2 11.88 38.76 11.86V11.3C38.2533 11.24 37.8533 11.0967 37.56 10.87C37.2733 10.6433 37.13 10.3567 37.13 10.01C37.13 9.61 37.3233 9.29 37.71 9.05C38.1033 8.81 38.62 8.69 39.26 8.69C39.9067 8.69 40.4267 8.81 40.82 9.05C41.2133 9.29 41.41 9.61 41.41 10.01C41.41 10.3567 41.26 10.6467 40.96 10.88C40.66 11.1067 40.2567 11.2467 39.75 11.3V11.82C40.6233 11.7733 41.3767 11.7067 42.01 11.62L42.08 12.29C41.2333 12.4367 40.3533 12.5333 39.44 12.58C38.5267 12.6267 37.5533 12.65 36.52 12.65L36.4 11.89ZM37.64 13.27H43.64V15.78H42.65V14.04H37.64V13.27ZM38.06 10.01C38.06 10.21 38.17 10.37 38.39 10.49C38.61 10.6033 38.9 10.66 39.26 10.66C39.6267 10.66 39.9167 10.6033 40.13 10.49C40.35 10.37 40.46 10.21 40.46 10.01C40.46 9.80333 40.3533 9.64333 40.14 9.53C39.9267 9.41667 39.6333 9.36 39.26 9.36C38.8933 9.36 38.6 9.41667 38.38 9.53C38.1667 9.64333 38.06 9.80333 38.06 10.01ZM42.65 6.94H43.64V12.89H42.65V6.94ZM53.1002 11.2V11.99H45.1102V11.2H53.1002ZM45.9902 12.93H52.1402V15.82H51.1602V13.71H45.9902V12.93ZM46.1002 7.26H52.1202V8.05H47.0702V9.53H52.2002V10.31H46.1002V7.26ZM55.6105 13.12H54.7105L54.5405 7.56H55.7605L55.6105 13.12ZM54.5805 14.61C54.5805 14.4433 54.6338 14.3067 54.7405 14.2C54.8538 14.0933 54.9971 14.04 55.1705 14.04C55.3438 14.04 55.4805 14.0933 55.5805 14.2C55.6871 14.3 55.7405 14.4367 55.7405 14.61C55.7405 14.7833 55.6871 14.9233 55.5805 15.03C55.4738 15.1433 55.3371 15.2 55.1705 15.2C54.9971 15.2 54.8538 15.1433 54.7405 15.03C54.6338 14.9233 54.5805 14.7833 54.5805 14.61Z" fill="white"/>
</svg>
