<svg width="56" height="56" viewBox="0 0 56 56" fill="none" xmlns="http://www.w3.org/2000/svg">
<circle cx="28" cy="28" r="27" fill="#FFF6EE" stroke="#FF881A" stroke-width="2"/>
<path d="M35.8076 14.8652C37.5117 16.5693 36.3341 20.5097 34.2649 22.5789C32.1957 24.6482 29.1368 24.9442 27.4327 23.2401C25.7287 21.536 26.2451 18.6976 28.3143 16.6283C30.3835 14.5591 34.1036 13.1611 35.8076 14.8652Z" fill="#85DC58"/>
<path d="M29.8649 20.3244C30.4955 19.5676 31.3784 18.4325 33.2703 16.9189" stroke="#5DAA36" stroke-width="1.6" stroke-linecap="round"/>
<path d="M29.2907 22.4093C28.9511 20.8267 27.6823 17.0785 25.3243 14.7466" stroke="#8A4C14" stroke-width="3" stroke-linecap="round"/>
<circle cx="27.5946" cy="29.4054" r="10.5946" fill="#FF881A"/>
<path fill-rule="evenodd" clip-rule="evenodd" d="M22.5422 30.4254C22.8689 30.0743 23.3985 30.0743 23.7251 30.4254C25.8621 32.7222 29.327 32.7222 31.464 30.4254C31.7906 30.0743 32.3202 30.0743 32.6469 30.4254C32.9735 30.7765 32.9735 31.3456 32.6469 31.6967C29.8565 34.6956 25.3325 34.6956 22.5422 31.6967C22.2156 31.3456 22.2156 30.7765 22.5422 30.4254Z" fill="#934600"/>
<path fill-rule="evenodd" clip-rule="evenodd" d="M24.1892 25.6216C24.8161 25.6216 25.3244 26.0282 25.3244 26.5297V27.7405C25.3244 28.242 24.8161 28.6486 24.1892 28.6486C23.5623 28.6486 23.0541 28.242 23.0541 27.7405V26.5297C23.0541 26.0282 23.5623 25.6216 24.1892 25.6216Z" fill="#934600"/>
<path fill-rule="evenodd" clip-rule="evenodd" d="M31 25.6216C31.6269 25.6216 32.1351 26.0282 32.1351 26.5297V27.7405C32.1351 28.242 31.6269 28.6486 31 28.6486C30.3731 28.6486 29.8649 28.242 29.8649 27.7405V26.5297C29.8649 26.0282 30.3731 25.6216 31 25.6216Z" fill="#934600"/>
<circle opacity="0.5" cx="28" cy="28" r="22.25" stroke="#FF881A" stroke-width="1.5"/>
<path d="M17.2186 13.7604C17.3153 13.4992 17.6847 13.4992 17.7814 13.7604L18.3974 15.4253C18.4278 15.5074 18.4926 15.5722 18.5747 15.6026L20.2396 16.2186C20.5008 16.3153 20.5008 16.6847 20.2396 16.7814L18.5747 17.3974C18.4926 17.4278 18.4278 17.4926 18.3974 17.5747L17.7814 19.2396C17.6847 19.5008 17.3153 19.5008 17.2186 19.2396L16.6026 17.5747C16.5722 17.4926 16.5074 17.4278 16.4253 17.3974L14.7604 16.7814C14.4992 16.6847 14.4992 16.3153 14.7604 16.2186L16.4253 15.6026C16.5074 15.5722 16.5722 15.5074 16.6026 15.4253L17.2186 13.7604Z" fill="#FF881A"/>
<path d="M42.2186 33.7604C42.3153 33.4992 42.6847 33.4992 42.7814 33.7604L43.3974 35.4253C43.4278 35.5074 43.4926 35.5722 43.5747 35.6026L45.2396 36.2186C45.5008 36.3153 45.5008 36.6847 45.2396 36.7814L43.5747 37.3974C43.4926 37.4278 43.4278 37.4926 43.3974 37.5747L42.7814 39.2396C42.6847 39.5008 42.3153 39.5008 42.2186 39.2396L41.6026 37.5747C41.5722 37.4926 41.5074 37.4278 41.4253 37.3974L39.7604 36.7814C39.4992 36.6847 39.4992 36.3153 39.7604 36.2186L41.4253 35.6026C41.5074 35.5722 41.5722 35.5074 41.6026 35.4253L42.2186 33.7604Z" fill="#FF881A"/>
<path d="M12.2186 21.7604C12.3153 21.4992 12.6847 21.4992 12.7814 21.7604L13.3974 23.4253C13.4278 23.5074 13.4926 23.5722 13.5747 23.6026L15.2396 24.2186C15.5008 24.3153 15.5008 24.6847 15.2396 24.7814L13.5747 25.3974C13.4926 25.4278 13.4278 25.4926 13.3974 25.5747L12.7814 27.2396C12.6847 27.5008 12.3153 27.5008 12.2186 27.2396L11.6026 25.5747C11.5722 25.4926 11.5074 25.4278 11.4253 25.3974L9.76035 24.7814C9.49917 24.6847 9.49917 24.3153 9.76035 24.2186L11.4253 23.6026C11.5074 23.5722 11.5722 23.5074 11.6026 23.4253L12.2186 21.7604Z" fill="#FF881A"/>
</svg>
