<svg width="56" height="56" viewBox="0 0 56 56" fill="none" xmlns="http://www.w3.org/2000/svg">
<circle cx="28" cy="28" r="27.25" fill="#F4F6F7" stroke="#ADB4BA" stroke-width="1.5" stroke-dasharray="3 3"/>
<path d="M35.8076 14.8652C37.5117 16.5693 36.3341 20.5097 34.2649 22.5789C32.1956 24.6482 29.1368 24.9442 27.4327 23.2401C25.7286 21.536 26.245 18.6976 28.3143 16.6283C30.3835 14.5591 34.1035 13.1611 35.8076 14.8652Z" fill="#DBDDDF"/>
<path d="M29.8649 20.3244C30.4955 19.5676 31.3784 18.4325 33.2703 16.9189" stroke="#ADB4BA" stroke-width="1.6" stroke-linecap="round"/>
<path d="M29.2907 22.4093C28.9511 20.8267 27.6823 17.0785 25.3243 14.7466" stroke="#ADB4BA" stroke-width="3" stroke-linecap="round"/>
<circle cx="27.5946" cy="29.4054" r="10.5946" fill="#DBDDDF"/>
<path fill-rule="evenodd" clip-rule="evenodd" d="M22.5422 30.4254C22.8688 30.0743 23.3984 30.0743 23.7251 30.4254C25.8621 32.7222 29.3269 32.7222 31.464 30.4254C31.7906 30.0743 32.3202 30.0743 32.6468 30.4254C32.9735 30.7765 32.9735 31.3456 32.6468 31.6967C29.8565 34.6956 25.3325 34.6956 22.5422 31.6967C22.2155 31.3456 22.2155 30.7765 22.5422 30.4254Z" fill="#ADB4BA"/>
<path fill-rule="evenodd" clip-rule="evenodd" d="M24.1891 25.6216C24.816 25.6216 25.3242 26.0282 25.3242 26.5297V27.7405C25.3242 28.242 24.816 28.6486 24.1891 28.6486C23.5622 28.6486 23.054 28.242 23.054 27.7405V26.5297C23.054 26.0282 23.5622 25.6216 24.1891 25.6216Z" fill="#ADB4BA"/>
<path fill-rule="evenodd" clip-rule="evenodd" d="M30.9999 25.6216C31.6268 25.6216 32.1351 26.0282 32.1351 26.5297V27.7405C32.1351 28.242 31.6268 28.6486 30.9999 28.6486C30.373 28.6486 29.8648 28.242 29.8648 27.7405V26.5297C29.8648 26.0282 30.373 25.6216 30.9999 25.6216Z" fill="#ADB4BA"/>
</svg>
