<svg width="110" height="44" viewBox="0 0 110 44" fill="none" xmlns="http://www.w3.org/2000/svg">
<path d="M35.144 11.964H37.076L36.096 18.124H33.296L35.144 11.964ZM42.5437 29.772C42.8423 30.4627 43.2903 31.004 43.8877 31.396C44.5037 31.7693 45.0823 31.956 45.6237 31.956C46.3703 31.956 46.9677 31.816 47.4157 31.536C47.8823 31.256 48.1157 30.864 48.1157 30.36C48.1157 29.9307 47.8917 29.5947 47.4437 29.352C46.9957 29.1093 46.2957 28.8293 45.3437 28.512C44.429 28.176 43.6917 27.8773 43.1317 27.616C42.5903 27.3547 42.0957 26.972 41.6477 26.468C41.2183 25.9453 41.0037 25.292 41.0037 24.508C41.0037 23.4067 41.4517 22.52 42.3477 21.848C43.2623 21.176 44.401 20.84 45.7637 20.84C46.3423 20.84 46.9583 20.9613 47.6117 21.204C48.265 21.428 48.853 21.7827 49.3757 22.268C49.917 22.7533 50.2903 23.3693 50.4957 24.116L48.1997 24.9C48.013 24.228 47.6863 23.7707 47.2197 23.528C46.753 23.2667 46.2677 23.136 45.7637 23.136C45.129 23.136 44.6157 23.2667 44.2237 23.528C43.8503 23.7707 43.6637 24.0973 43.6637 24.508C43.6637 24.9373 43.869 25.264 44.2797 25.488C44.6903 25.712 45.3903 25.992 46.3797 26.328C47.313 26.664 48.0597 26.972 48.6197 27.252C49.1983 27.5133 49.7023 27.896 50.1317 28.4C50.561 28.904 50.7757 29.548 50.7757 30.332C50.7757 31.508 50.2903 32.46 49.3197 33.188C48.3677 33.916 47.1357 34.28 45.6237 34.28C44.597 34.28 43.5983 33.9907 42.6277 33.412C41.657 32.8147 40.929 32.012 40.4437 31.004L42.5437 29.772ZM67.5999 32.012C68.7199 32.012 69.6253 31.6107 70.3159 30.808C71.0066 29.9867 71.3519 28.9133 71.3519 27.588C71.3519 26.2813 71.0066 25.2267 70.3159 24.424C69.6253 23.6027 68.7199 23.192 67.5999 23.192C66.9093 23.192 66.2653 23.3973 65.6679 23.808C65.0893 24.2 64.6226 24.732 64.2679 25.404C63.9319 26.076 63.7639 26.804 63.7639 27.588C63.7639 28.3907 63.9319 29.128 64.2679 29.8C64.6226 30.472 65.0893 31.0133 65.6679 31.424C66.2653 31.816 66.9093 32.012 67.5999 32.012ZM61.0759 20.952H63.7359V23.052C64.1839 22.38 64.7906 21.8667 65.5559 21.512C66.3213 21.1387 67.0399 20.952 67.7119 20.952C68.9253 20.952 70.0079 21.232 70.9599 21.792C71.9306 22.352 72.6773 23.136 73.1999 24.144C73.7413 25.152 74.0119 26.3 74.0119 27.588C74.0119 28.8947 73.7413 30.052 73.1999 31.06C72.6773 32.068 71.9306 32.8613 70.9599 33.44C70.0079 34 68.9253 34.28 67.7119 34.28C67.0586 34.28 66.3493 34.0933 65.5839 33.72C64.8186 33.3467 64.2026 32.8333 63.7359 32.18V40.104H61.0759V20.952ZM79.9241 20.952V34.14H77.2641V20.952H79.9241ZM77.0401 15.912C77.0401 15.464 77.1801 15.1 77.4601 14.82C77.7588 14.5213 78.1321 14.372 78.5801 14.372C79.0281 14.372 79.3921 14.5213 79.6721 14.82C79.9708 15.1 80.1201 15.464 80.1201 15.912C80.1201 16.36 79.9708 16.7333 79.6721 17.032C79.3921 17.312 79.0281 17.452 78.5801 17.452C78.1321 17.452 77.7588 17.312 77.4601 17.032C77.1801 16.7333 77.0401 16.36 77.0401 15.912ZM89.5561 31.76C90.0974 31.76 90.6574 31.6293 91.2361 31.368C91.8148 31.1067 92.3001 30.7707 92.6921 30.36L94.5401 32.152C93.9614 32.768 93.2054 33.2813 92.2721 33.692C91.3574 34.084 90.4894 34.28 89.6681 34.28C88.3614 34.28 87.1948 34 86.1681 33.44C85.1601 32.8613 84.3668 32.068 83.7881 31.06C83.2281 30.052 82.9481 28.904 82.9481 27.616C82.9481 26.328 83.2281 25.18 83.7881 24.172C84.3668 23.164 85.1601 22.38 86.1681 21.82C87.1948 21.2413 88.3614 20.952 89.6681 20.952C90.5268 20.952 91.4041 21.148 92.3001 21.54C93.2148 21.932 93.9614 22.4453 94.5401 23.08L92.6921 24.872C92.3001 24.4613 91.8148 24.1253 91.2361 23.864C90.6574 23.6027 90.0974 23.472 89.5561 23.472C88.3801 23.472 87.4281 23.8547 86.7001 24.62C85.9721 25.3667 85.6081 26.3653 85.6081 27.616C85.6081 28.8667 85.9721 29.8747 86.7001 30.64C87.4281 31.3867 88.3801 31.76 89.5561 31.76ZM99.9658 26.804L105.006 20.952H108.562L103.466 26.832L108.562 34.168H105.314L101.562 28.82L99.9658 30.724V34.168H97.3058V14.26H99.9658V26.804Z" fill="#262C31"/>
<g clip-path="url(#clip0_530_66140)">
<path d="M21.4683 8.51292C18.6031 11.3024 13.0876 10.2814 13.0876 10.2814C13.0876 10.2814 12.2156 4.73905 15.0808 1.94957C17.9436 -0.837471 23.459 0.183548 23.459 0.183548C23.459 0.183548 24.331 5.72588 21.4658 8.51536L21.4683 8.51292Z" fill="#A5CC2B"/>
<path d="M12.9508 37.9974C20.1034 37.9974 25.9017 32.1991 25.9017 25.0465C25.9017 17.894 20.1034 12.0957 12.9508 12.0957C5.79828 12.0957 0 17.894 0 25.0465C0 32.1991 5.79828 37.9974 12.9508 37.9974Z" fill="#FF881A"/>
</g>
<defs>
<clipPath id="clip0_530_66140">
<rect width="25.9041" height="38" fill="white"/>
</clipPath>
</defs>
</svg>
