<svg width="110" height="45" viewBox="0 0 110 45" fill="none" xmlns="http://www.w3.org/2000/svg">
<path d="M41.696 30.772C41.9947 31.4627 42.4427 32.004 43.04 32.396C43.656 32.7693 44.2347 32.956 44.776 32.956C45.5227 32.956 46.12 32.816 46.568 32.536C47.0347 32.256 47.268 31.864 47.268 31.36C47.268 30.9307 47.044 30.5947 46.596 30.352C46.148 30.1093 45.448 29.8293 44.496 29.512C43.5813 29.176 42.844 28.8773 42.284 28.616C41.7427 28.3547 41.248 27.972 40.8 27.468C40.3707 26.9453 40.156 26.292 40.156 25.508C40.156 24.4067 40.604 23.52 41.5 22.848C42.4147 22.176 43.5533 21.84 44.916 21.84C45.4947 21.84 46.1107 21.9613 46.764 22.204C47.4173 22.428 48.0053 22.7827 48.528 23.268C49.0693 23.7533 49.4427 24.3693 49.648 25.116L47.352 25.9C47.1653 25.228 46.8387 24.7707 46.372 24.528C45.9053 24.2667 45.42 24.136 44.916 24.136C44.2813 24.136 43.768 24.2667 43.376 24.528C43.0027 24.7707 42.816 25.0973 42.816 25.508C42.816 25.9373 43.0213 26.264 43.432 26.488C43.8427 26.712 44.5427 26.992 45.532 27.328C46.4653 27.664 47.212 27.972 47.772 28.252C48.3507 28.5133 48.8547 28.896 49.284 29.4C49.7133 29.904 49.928 30.548 49.928 31.332C49.928 32.508 49.4427 33.46 48.472 34.188C47.52 34.916 46.288 35.28 44.776 35.28C43.7493 35.28 42.7507 34.9907 41.78 34.412C40.8093 33.8147 40.0813 33.012 39.596 32.004L41.696 30.772ZM66.7523 33.012C67.8723 33.012 68.7776 32.6107 69.4683 31.808C70.1589 30.9867 70.5043 29.9133 70.5043 28.588C70.5043 27.2813 70.1589 26.2267 69.4683 25.424C68.7776 24.6027 67.8723 24.192 66.7523 24.192C66.0616 24.192 65.4176 24.3973 64.8203 24.808C64.2416 25.2 63.7749 25.732 63.4203 26.404C63.0843 27.076 62.9163 27.804 62.9163 28.588C62.9163 29.3907 63.0843 30.128 63.4203 30.8C63.7749 31.472 64.2416 32.0133 64.8203 32.424C65.4176 32.816 66.0616 33.012 66.7523 33.012ZM60.2283 21.952H62.8883V24.052C63.3363 23.38 63.9429 22.8667 64.7083 22.512C65.4736 22.1387 66.1923 21.952 66.8643 21.952C68.0776 21.952 69.1603 22.232 70.1123 22.792C71.0829 23.352 71.8296 24.136 72.3523 25.144C72.8936 26.152 73.1643 27.3 73.1643 28.588C73.1643 29.8947 72.8936 31.052 72.3523 32.06C71.8296 33.068 71.0829 33.8613 70.1123 34.44C69.1603 35 68.0776 35.28 66.8643 35.28C66.2109 35.28 65.5016 35.0933 64.7363 34.72C63.9709 34.3467 63.3549 33.8333 62.8883 33.18V41.104H60.2283V21.952ZM79.0764 21.952V35.14H76.4164V21.952H79.0764ZM76.1924 16.912C76.1924 16.464 76.3324 16.1 76.6124 15.82C76.9111 15.5213 77.2844 15.372 77.7324 15.372C78.1804 15.372 78.5444 15.5213 78.8244 15.82C79.1231 16.1 79.2724 16.464 79.2724 16.912C79.2724 17.36 79.1231 17.7333 78.8244 18.032C78.5444 18.312 78.1804 18.452 77.7324 18.452C77.2844 18.452 76.9111 18.312 76.6124 18.032C76.3324 17.7333 76.1924 17.36 76.1924 16.912ZM88.7084 32.76C89.2498 32.76 89.8098 32.6293 90.3884 32.368C90.9671 32.1067 91.4524 31.7707 91.8444 31.36L93.6924 33.152C93.1138 33.768 92.3578 34.2813 91.4244 34.692C90.5098 35.084 89.6418 35.28 88.8204 35.28C87.5138 35.28 86.3471 35 85.3204 34.44C84.3124 33.8613 83.5191 33.068 82.9404 32.06C82.3804 31.052 82.1004 29.904 82.1004 28.616C82.1004 27.328 82.3804 26.18 82.9404 25.172C83.5191 24.164 84.3124 23.38 85.3204 22.82C86.3471 22.2413 87.5138 21.952 88.8204 21.952C89.6791 21.952 90.5564 22.148 91.4524 22.54C92.3671 22.932 93.1138 23.4453 93.6924 24.08L91.8444 25.872C91.4524 25.4613 90.9671 25.1253 90.3884 24.864C89.8098 24.6027 89.2498 24.472 88.7084 24.472C87.5324 24.472 86.5804 24.8547 85.8524 25.62C85.1244 26.3667 84.7604 27.3653 84.7604 28.616C84.7604 29.8667 85.1244 30.8747 85.8524 31.64C86.5804 32.3867 87.5324 32.76 88.7084 32.76ZM99.1181 27.804L104.158 21.952H107.714L102.618 27.832L107.714 35.168H104.466L100.714 29.82L99.1181 31.724V35.168H96.4581V15.26H99.1181V27.804Z" fill="#262C31"/>
<path d="M35.632 11.908C36.1547 11.908 36.584 12.1227 36.92 12.552C37.256 12.9813 37.4427 13.476 37.48 14.036C37.536 14.7267 37.4893 15.324 37.34 15.828C37.2093 16.3133 36.9853 16.7893 36.668 17.256C36.388 17.6853 36.052 18.0587 35.66 18.376C35.268 18.6933 34.8293 18.8987 34.344 18.992C34.1013 19.104 33.98 19.0573 33.98 18.852V17.76C33.98 17.6107 33.9893 17.5173 34.008 17.48C34.0453 17.424 34.1013 17.3773 34.176 17.34C34.4933 17.1907 34.764 16.976 34.988 16.696C35.2307 16.3973 35.3613 16.0613 35.38 15.688C34.988 15.5947 34.624 15.408 34.288 15.128C33.952 14.8293 33.784 14.428 33.784 13.924C33.784 13.3267 33.952 12.8413 34.288 12.468C34.6427 12.0947 35.0907 11.908 35.632 11.908Z" fill="#262C31"/>
<g clip-path="url(#clip0_530_66140)">
<path d="M21.4683 8.51292C18.6031 11.3024 13.0876 10.2814 13.0876 10.2814C13.0876 10.2814 12.2156 4.73905 15.0808 1.94957C17.9436 -0.837471 23.459 0.183548 23.459 0.183548C23.459 0.183548 24.331 5.72588 21.4658 8.51536L21.4683 8.51292Z" fill="#A5CC2B"/>
<path d="M12.9508 37.9974C20.1034 37.9974 25.9017 32.1991 25.9017 25.0465C25.9017 17.894 20.1034 12.0957 12.9508 12.0957C5.79828 12.0957 0 17.894 0 25.0465C0 32.1991 5.79828 37.9974 12.9508 37.9974Z" fill="#FF881A"/>
</g>
<defs>
<clipPath id="clip0_530_66140">
<rect width="25.9041" height="38" fill="white"/>
</clipPath>
</defs>
</svg>
