<svg width="375" height="329" viewBox="0 0 375 329" fill="none" xmlns="http://www.w3.org/2000/svg">
<path fill-rule="evenodd" clip-rule="evenodd" d="M150.479 75.2218C142.448 75.2218 135.934 81.7359 135.934 89.7674V159.655L128.692 162.345C60.6609 187.617 12.2199 253.124 12.2199 329.93C12.2199 336.066 7.24578 341.04 1.10993 341.04C-5.02591 341.04 -10 336.066 -10 329.93C-10 246.293 41.0806 174.622 113.714 144.368V89.7674C113.714 69.4642 130.176 53.002 150.479 53.002H228.876C248.953 53.002 265.322 69.1111 265.617 89.2145C265.617 89.2137 265.617 89.2154 265.617 89.2145C265.617 89.2154 265.617 89.2187 265.617 89.2196L266.435 143.682C339.979 173.524 391.875 245.669 391.875 329.952C391.875 336.088 386.901 341.062 380.765 341.062C374.63 341.062 369.655 336.088 369.655 329.952C369.655 252.592 320.487 186.677 251.664 161.812L244.446 159.204L243.4 89.5432C243.284 81.5869 236.814 75.2218 228.876 75.2218H150.479Z" fill="#FF881A"/>
<path d="M265.617 89.2145C265.322 69.1111 248.953 53.002 228.876 53.002H150.479C130.176 53.002 113.714 69.4642 113.714 89.7674V144.368C41.0806 174.622 -10 246.293 -10 329.93C-10 336.066 -5.02591 341.04 1.10993 341.04C7.24578 341.04 12.2199 336.066 12.2199 329.93C12.2199 253.124 60.661 187.617 128.692 162.345L135.934 159.655V89.7674C135.934 81.7359 142.448 75.2218 150.479 75.2218H228.876C236.814 75.2218 243.284 81.5869 243.4 89.5432L244.446 159.204L251.664 161.812C320.487 186.677 369.655 252.592 369.655 329.952C369.655 336.088 374.63 341.062 380.765 341.062C386.901 341.062 391.875 336.088 391.875 329.952C391.875 245.669 339.979 173.524 266.435 143.682L265.617 89.2196C265.617 89.2187 265.617 89.2154 265.617 89.2145ZM265.617 89.2145C265.617 89.2137 265.617 89.2154 265.617 89.2145Z" stroke="white" stroke-width="4" stroke-miterlimit="10" stroke-linecap="round"/>
<path d="M189.553 147.909C207.835 147.909 222.655 133.088 222.655 114.806C222.655 96.5245 207.835 81.7041 189.553 81.7041C171.271 81.7041 156.45 96.5245 156.45 114.806C156.45 133.088 171.271 147.909 189.553 147.909Z" fill="#FF881A"/>
<path d="M95.0362 234.779C92.0392 231.782 89.5418 228.263 87.9071 224.312C84.7513 216.706 83.5934 205.286 98.4191 196.909C98.4191 196.909 132.134 177.406 159.175 173.546C160.287 173.387 161.377 173.206 162.467 172.956C166.894 171.934 182.151 170.072 185.738 191.55C186.034 193.276 186.124 195.024 186.124 196.772L185.829 301.21C185.829 301.823 185.829 302.436 185.875 303.049C185.988 305.365 186.056 312.835 181.788 314.492C181.788 314.492 177.02 316.763 169.868 309.611L95.0362 234.779Z" fill="#FF881A"/>
<path d="M195.592 197.388C195.592 193.142 196.318 188.897 197.953 184.969C201.109 177.363 208.352 168.463 224.744 173.027C224.744 173.027 262.364 183.062 284.228 199.454C285.114 200.112 286.022 200.771 286.975 201.361C290.835 203.768 302.936 213.235 290.29 230.967C289.268 232.397 288.111 233.692 286.885 234.918L212.824 308.546C212.393 308.978 211.962 309.432 211.553 309.886C209.986 311.611 204.764 316.924 200.564 315.085C200.564 315.085 195.592 313.314 195.592 303.211V197.388Z" fill="#FF881A"/>
<path d="M57.8244 335.833C53.5788 335.833 49.3331 335.106 45.4054 333.471C37.7995 330.315 28.8996 323.073 33.4631 306.681C33.4631 306.681 43.4982 269.06 59.8905 247.196C60.5489 246.311 61.2073 245.403 61.7976 244.449C64.2042 240.589 73.6718 228.488 91.4036 241.134C92.8339 242.156 94.128 243.314 95.354 244.54L168.983 318.6C169.414 319.032 169.868 319.463 170.322 319.872C172.048 321.438 177.361 326.66 175.522 330.86C175.522 330.86 173.751 335.833 163.648 335.833H57.8244Z" fill="#FF881A"/>
<path d="M287.271 244.675C290.267 241.678 293.787 239.181 297.737 237.546C305.343 234.391 316.763 233.233 325.141 248.058C325.141 248.058 344.643 281.774 348.503 308.814C348.662 309.927 348.844 311.016 349.093 312.106C350.115 316.533 351.977 331.79 330.499 335.378C328.773 335.673 327.025 335.764 325.277 335.764L220.839 335.468C220.226 335.468 219.613 335.469 219 335.514C216.684 335.627 209.214 335.696 207.557 331.427C207.557 331.427 205.287 326.659 212.438 319.508L287.271 244.675Z" fill="#FF881A"/>
<path fill-rule="evenodd" clip-rule="evenodd" d="M54.4574 244.742C56.3028 241.553 60.3838 240.464 63.5725 242.309L75.5375 249.234C78.7262 251.08 79.8151 255.161 77.9696 258.349C76.1242 261.538 72.0432 262.627 68.8545 260.781L56.8895 253.857C53.7008 252.011 52.6119 247.93 54.4574 244.742Z" fill="white"/>
<path fill-rule="evenodd" clip-rule="evenodd" d="M37.8078 274.088C39.2714 270.707 43.1988 269.152 46.5798 270.616L59.2713 276.111C62.6523 277.574 64.2066 281.502 62.7429 284.883C61.2792 288.264 57.3519 289.818 53.9709 288.354L41.2794 282.86C37.8984 281.396 36.3441 277.469 37.8078 274.088Z" fill="white"/>
<path fill-rule="evenodd" clip-rule="evenodd" d="M26.6986 307.77C27.2128 304.122 30.5871 301.581 34.2353 302.095L47.9258 304.025C51.5739 304.54 54.1145 307.914 53.6002 311.562C53.0859 315.21 49.7117 317.751 46.0635 317.236L32.373 315.307C28.7249 314.792 26.1843 311.418 26.6986 307.77Z" fill="white"/>
<path fill-rule="evenodd" clip-rule="evenodd" d="M330.318 244.726C331.934 248.037 330.56 252.031 327.25 253.647L314.83 259.709C311.52 261.325 307.526 259.951 305.909 256.64C304.293 253.329 305.667 249.335 308.978 247.719L321.397 241.657C324.708 240.041 328.702 241.415 330.318 244.726Z" fill="white"/>
<path fill-rule="evenodd" clip-rule="evenodd" d="M344.869 275.118C346.1 278.591 344.282 282.403 340.809 283.633L327.8 288.242C324.327 289.473 320.514 287.655 319.284 284.182C318.054 280.709 319.872 276.897 323.344 275.667L336.354 271.058C339.826 269.827 343.639 271.645 344.869 275.118Z" fill="white"/>
<path fill-rule="evenodd" clip-rule="evenodd" d="M353.636 309.503C353.896 313.178 351.128 316.369 347.453 316.629L333.672 317.605C329.997 317.866 326.807 315.098 326.546 311.423C326.286 307.748 329.054 304.557 332.729 304.297L346.51 303.321C350.185 303.06 353.376 305.828 353.636 309.503Z" fill="white"/>
<path fill-rule="evenodd" clip-rule="evenodd" d="M159.066 167.756C162.625 166.805 166.281 168.92 167.232 172.48L170.796 185.83C171.747 189.389 169.632 193.045 166.072 193.996C162.513 194.946 158.857 192.831 157.906 189.272L154.342 175.922C153.391 172.362 155.506 168.706 159.066 167.756Z" fill="white"/>
<path fill-rule="evenodd" clip-rule="evenodd" d="M126.546 176.74C129.972 175.385 133.848 177.063 135.204 180.488L140.29 193.339C141.645 196.764 139.967 200.641 136.542 201.996C133.116 203.352 129.24 201.674 127.884 198.248L122.798 185.398C121.443 181.972 123.121 178.096 126.546 176.74Z" fill="white"/>
<path fill-rule="evenodd" clip-rule="evenodd" d="M94.8828 192.687C97.8258 190.471 102.008 191.06 104.225 194.003L112.534 205.037C114.751 207.98 114.162 212.163 111.219 214.379C108.276 216.595 104.093 216.006 101.877 213.063L93.5671 202.029C91.3507 199.086 91.9398 194.904 94.8828 192.687Z" fill="white"/>
<path fill-rule="evenodd" clip-rule="evenodd" d="M286.676 194.327C289.867 196.168 290.962 200.248 289.121 203.439L282.219 215.404C280.378 218.595 276.299 219.69 273.107 217.849C269.916 216.008 268.821 211.929 270.662 208.737L277.564 196.772C279.405 193.581 283.485 192.486 286.676 194.327Z" fill="white"/>
<path fill-rule="evenodd" clip-rule="evenodd" d="M257.335 177.705C260.718 179.166 262.275 183.092 260.814 186.474L255.343 199.143C253.882 202.525 249.956 204.083 246.574 202.622C243.191 201.161 241.634 197.235 243.095 193.853L248.566 181.184C250.027 177.802 253.953 176.244 257.335 177.705Z" fill="white"/>
<path fill-rule="evenodd" clip-rule="evenodd" d="M223.679 166.599C227.327 167.114 229.866 170.489 229.351 174.137L227.421 187.804C226.906 191.452 223.531 193.992 219.883 193.477C216.235 192.962 213.696 189.587 214.211 185.939L216.141 172.271C216.656 168.623 220.03 166.083 223.679 166.599Z" fill="white"/>
<path fill-rule="evenodd" clip-rule="evenodd" d="M210.194 105.251C213.23 102.215 213.23 97.2927 210.194 94.2566C207.158 91.2205 202.235 91.2205 199.199 94.2566L188.745 104.71L182.972 98.9363C179.935 95.9002 175.013 95.9001 171.977 98.9363C168.941 101.972 168.941 106.895 171.977 109.931L182.557 120.511C182.895 120.849 183.256 121.149 183.635 121.412C186.687 124.154 191.387 124.058 194.324 121.121L210.194 105.251Z" fill="white"/>
<path d="M210.194 94.2566L207.719 96.7315L210.194 94.2566ZM210.194 105.251L212.669 107.726V107.726L210.194 105.251ZM199.199 94.2566L196.724 91.7817V91.7817L199.199 94.2566ZM188.745 104.71L186.271 107.185L188.745 109.66L191.22 107.185L188.745 104.71ZM182.972 98.9363L180.497 101.411L182.972 98.9363ZM171.977 98.9363L174.452 101.411L174.452 101.411L171.977 98.9363ZM171.977 109.931L169.502 112.406L171.977 109.931ZM182.557 120.511L180.082 122.986L180.082 122.986L182.557 120.511ZM183.635 121.412L185.974 118.808L185.809 118.66L185.627 118.534L183.635 121.412ZM194.324 121.121L196.798 123.596L196.798 123.596L194.324 121.121ZM207.719 96.7315C209.388 98.4008 209.388 101.107 207.719 102.777L212.669 107.726C217.071 103.323 217.071 96.1847 212.669 91.7817L207.719 96.7315ZM201.674 96.7315C203.343 95.0622 206.049 95.0622 207.719 96.7315L212.669 91.7817C208.266 87.3787 201.127 87.3788 196.724 91.7817L201.674 96.7315ZM191.22 107.185L201.674 96.7315L196.724 91.7817L186.271 102.235L191.22 107.185ZM180.497 101.411L186.271 107.185L191.22 102.235L185.446 96.4614L180.497 101.411ZM174.452 101.411C176.121 99.7419 178.827 99.7419 180.497 101.411L185.446 96.4614C181.044 92.0584 173.905 92.0584 169.502 96.4614L174.452 101.411ZM174.452 107.456C172.782 105.787 172.782 103.08 174.452 101.411L169.502 96.4614C165.099 100.864 165.099 108.003 169.502 112.406L174.452 107.456ZM185.032 118.036L174.452 107.456L169.502 112.406L180.082 122.986L185.032 118.036ZM185.627 118.534C185.42 118.39 185.22 118.225 185.032 118.036L180.082 122.986C180.569 123.473 181.091 123.908 181.642 124.289L185.627 118.534ZM191.849 118.647C190.235 120.26 187.65 120.314 185.974 118.808L181.295 124.015C185.724 127.994 192.54 127.855 196.798 123.596L191.849 118.647ZM207.719 102.777L191.849 118.647L196.798 123.596L212.669 107.726L207.719 102.777Z" fill="#FF881A"/>
<path d="M229.375 40.1795C216.026 53.5294 189.916 49.0567 189.916 49.0567C189.916 49.0567 185.443 22.9472 198.793 9.59725C212.143 -3.75267 238.253 0.720008 238.253 0.720008C238.253 0.720008 242.725 26.8295 229.375 40.1795Z" fill="#A5CC2B"/>
</svg>
