<svg width="220" height="126" viewBox="0 0 220 126" fill="none" xmlns="http://www.w3.org/2000/svg">
<g clip-path="url(#clip0_499_45543)">
<path d="M99.4507 108.662H108.73V106.413C106.4 105.868 105.046 104.052 105.046 101.873C105.046 99.6934 106.442 97.8633 108.8 97.3604V95.167H111.465V97.3883C113.768 97.9052 115.191 99.6934 115.191 101.873C115.191 104.052 113.823 105.882 111.535 106.413V108.662H120.814V110.94H99.4647V108.662H99.4507ZM107.572 101.873C107.572 103.41 108.646 104.374 110.126 104.374C111.605 104.374 112.679 103.41 112.679 101.873C112.679 100.336 111.605 99.3721 110.126 99.3721C108.646 99.3721 107.572 100.364 107.572 101.873Z" fill="#FF881A"/>
<path d="M124.401 112.253V105.058H130.987V102.39H124.401V100.141H133.708V107.182H127.122V109.934H134.224V112.239H124.401V112.253ZM138.648 106.064H134.936V103.731H138.648V99.3863C137.88 98.8693 137.085 98.3943 136.289 97.8774L137.252 96.0333L141.285 97.9613V111.01H138.648V106.064ZM135.02 114.614H137.824V119.56H146.797V121.837H135.02V114.614ZM144.02 98.1569L141.55 96.5922L142.513 94.748L146.657 96.7598V110.996H144.02V98.1569Z" fill="#FF881A"/>
<path d="M155.895 104.639V102.222H151.639V99.9727H162.788V102.222H158.756V104.639L163.528 109.389L161.881 110.981L157.318 106.804L152.462 111.121L150.899 109.501L155.895 104.639ZM170.993 111.009H168.272V98.1705C167.449 97.6536 166.654 97.1227 165.83 96.6338C166.165 96.0051 166.542 95.3764 166.849 94.7617C168.244 95.4463 169.626 96.1029 170.993 96.7735V111.009Z" fill="#FF881A"/>
<path d="M174.37 108.984H195.72V111.261H174.37V108.984ZM183.65 99.2604V95.7119H186.454V99.2604L192.162 104.206L190.571 105.938L185.031 101.621L179.491 105.938C178.947 105.366 178.445 104.807 177.928 104.206L183.636 99.2604H183.65Z" fill="#FF881A"/>
<path d="M197.66 108.412H218.995V110.689H209.716V113.958H213.665V120.943H205.753V123.723H214.237V126H203.018V118.806H210.944V116.193H203.018V113.944H206.939V110.675H197.66V108.398V108.412ZM213.581 106.791H210.86V104.067H202.488V101.79H210.86V99.177H202.627V96.7881H213.581V106.791Z" fill="#FF881A"/>
<path d="M15.7681 43.8253C24.4766 43.8253 31.5362 36.7574 31.5362 28.0386C31.5362 19.3199 24.4766 12.252 15.7681 12.252C7.05962 12.252 0 19.3199 0 28.0386C0 36.7574 7.05962 43.8253 15.7681 43.8253Z" fill="#FF881A"/>
<path d="M23.7219 7.96333C21.0846 10.6038 15.9076 9.72361 15.9076 9.72361C15.9076 9.72361 15.0285 4.54056 17.6659 1.90013C20.3171 -0.740296 25.4801 0.139846 25.4801 0.139846C25.4801 0.139846 26.3593 5.3229 23.7219 7.96333Z" fill="#A5CC2B"/>
<path d="M53.2488 15.8291V22.7864C52.6208 22.7445 52.1324 22.6886 51.5603 22.6886C47.402 22.6886 44.653 24.9658 44.653 29.9393V42.2194H37.1178V16.2063H44.3182V19.6431C46.1461 17.1284 49.2439 15.8291 53.2488 15.8291Z" fill="#FF881A"/>
<path d="M83.864 16.2059V42.219H76.6637V39.2153C74.7799 41.4925 72.031 42.5962 68.5564 42.5962C61.2165 42.5962 55.5651 37.3712 55.5651 29.1985C55.5651 21.0257 61.2165 15.8008 68.5564 15.8008C71.7379 15.8008 74.445 16.8206 76.3288 18.9441V16.192H83.864V16.2059ZM76.4823 29.2125C76.4823 24.714 73.5799 22.0037 69.8681 22.0037C66.1563 22.0037 63.198 24.714 63.198 29.2125C63.198 33.711 66.1005 36.4212 69.8681 36.4212C73.6357 36.4212 76.4823 33.711 76.4823 29.2125Z" fill="#FF881A"/>
<path d="M117.382 27.3271V42.2197H109.847V28.4867C109.847 24.2816 107.921 22.3536 104.586 22.3536C100.958 22.3536 98.3623 24.5749 98.3623 29.3668V42.2197H90.8271V16.2066H98.0274V19.2522C100.051 17.0309 103.093 15.8154 106.623 15.8154C112.749 15.8154 117.396 19.3919 117.396 27.3271H117.382Z" fill="#FF881A"/>
<path d="M151.276 16.2062V37.8605C151.276 47.5281 146.057 51.9707 136.694 51.9707C131.768 51.9707 126.982 50.7553 123.94 48.3943L126.94 42.9737C129.159 44.7619 132.787 45.9215 136.108 45.9215C141.425 45.9215 143.741 43.5046 143.741 38.8105V37.6929C141.759 39.8723 138.913 40.934 135.536 40.934C128.336 40.934 122.545 35.9605 122.545 28.3606C122.545 20.7606 128.336 15.7871 135.536 15.7871C139.164 15.7871 142.15 17.0025 144.132 19.5033V16.1643H151.276V16.2062ZM143.839 28.3885C143.839 24.5746 140.992 22.004 137.029 22.004C133.066 22.004 130.178 24.5606 130.178 28.3885C130.178 32.2164 133.08 34.773 137.029 34.773C140.978 34.773 143.839 32.2164 143.839 28.3885Z" fill="#FF881A"/>
<path d="M177.873 34.0463L181.877 38.3911C179.463 41.1433 175.835 42.5962 171.161 42.5962C162.174 42.5962 156.341 36.9382 156.341 29.1985C156.341 21.4588 162.23 15.8008 170.254 15.8008C177.594 15.8008 183.636 20.6346 183.678 28.947L164.463 32.6632C165.579 35.2198 167.993 36.533 171.37 36.533C174.119 36.533 176.1 35.7088 177.887 34.0183L177.873 34.0463ZM163.723 28.4441L176.38 25.9853C175.654 23.3309 173.379 21.5427 170.254 21.5427C166.486 21.5427 163.877 24.0574 163.737 28.4581L163.723 28.4441Z" fill="#FF881A"/>
<path d="M48.5741 82.1889L51.2254 76.2933C54.072 78.3749 58.328 79.8279 62.3747 79.8279C67.0075 79.8279 68.8913 78.2771 68.8913 76.1955C68.8913 69.8669 49.2439 74.2117 49.2439 61.6382C49.2439 55.8824 53.8767 51.1045 63.4911 51.1045C67.747 51.1045 72.0868 52.1243 75.2264 54.1081L72.8124 60.0596C69.6727 58.2714 66.4354 57.4052 63.4492 57.4052C58.8164 57.4052 57.0303 59.1515 57.0303 61.275C57.0303 67.5059 76.6777 63.2029 76.6777 75.6367C76.6777 81.2948 71.9891 86.1286 62.3329 86.1286C56.9745 86.1286 51.5603 84.5359 48.5741 82.2168V82.1889Z" fill="#FF881A"/>
<path d="M79.5801 72.5217C79.5801 64.6843 85.6222 59.124 94.0644 59.124C99.5205 59.124 103.818 61.499 105.702 65.746L99.8554 68.8894C98.46 66.4306 96.3808 65.313 94.0086 65.313C90.1992 65.313 87.199 67.9674 87.199 72.5217C87.199 77.0761 90.1992 79.7305 94.0086 79.7305C96.3808 79.7305 98.446 78.6688 99.8554 76.1541L105.702 79.3393C103.818 83.5026 99.5205 85.9195 94.0644 85.9195C85.6083 85.9195 79.5801 80.3592 79.5801 72.5217Z" fill="#FF881A"/>
<path d="M136.415 70.6351V85.5276H128.88V71.7946C128.88 67.5895 126.954 65.6616 123.619 65.6616C119.991 65.6616 117.396 67.8829 117.396 72.6748V85.5276H109.86V49.6514H117.396V62.2248C119.419 60.1991 122.321 59.1373 125.656 59.1373C131.782 59.1373 136.429 62.7138 136.429 70.649L136.415 70.6351Z" fill="#FF881A"/>
<path d="M141.578 72.5217C141.578 64.6843 147.62 59.124 155.867 59.124C164.114 59.124 170.114 64.6843 170.114 72.5217C170.114 80.3592 164.128 85.9195 155.867 85.9195C147.606 85.9195 141.578 80.3592 141.578 72.5217ZM162.481 72.5217C162.481 68.0232 159.635 65.313 155.867 65.313C152.099 65.313 149.197 68.0232 149.197 72.5217C149.197 77.0202 152.099 79.7305 155.867 79.7305C159.635 79.7305 162.481 77.0202 162.481 72.5217Z" fill="#FF881A"/>
<path d="M173.198 72.5217C173.198 64.6843 179.24 59.124 187.487 59.124C195.734 59.124 201.734 64.6843 201.734 72.5217C201.734 80.3592 195.748 85.9195 187.487 85.9195C179.226 85.9195 173.198 80.3592 173.198 72.5217ZM194.101 72.5217C194.101 68.0232 191.255 65.313 187.487 65.313C183.719 65.313 180.817 68.0232 180.817 72.5217C180.817 77.0202 183.719 79.7305 187.487 79.7305C191.255 79.7305 194.101 77.0202 194.101 72.5217Z" fill="#FF881A"/>
<path d="M206.772 76.9081V49.6377H214.307V76.475C214.307 78.6964 215.465 79.9118 217.544 79.9118C218.367 79.9118 219.233 79.6743 219.665 79.4228L220 85.2765C218.702 85.7095 217.391 85.9051 216.093 85.9051C210.246 85.9051 206.772 82.7199 206.772 76.9081Z" fill="#FF881A"/>
<path d="M156.314 81.5459C161.254 81.5459 165.258 77.5366 165.258 72.5908C165.258 67.6451 161.254 63.6357 156.314 63.6357C151.374 63.6357 147.369 67.6451 147.369 72.5908C147.369 77.5366 151.374 81.5459 156.314 81.5459Z" fill="#FF881A"/>
<path d="M188.854 81.5459C193.794 81.5459 197.799 77.5366 197.799 72.5908C197.799 67.6451 193.794 63.6357 188.854 63.6357C183.915 63.6357 179.91 67.6451 179.91 72.5908C179.91 77.5366 183.915 81.5459 188.854 81.5459Z" fill="#FF881A"/>
<path d="M184.347 71.6412C185.288 71.6412 186.05 70.8781 186.05 69.9368C186.05 68.9955 185.288 68.2324 184.347 68.2324C183.407 68.2324 182.645 68.9955 182.645 69.9368C182.645 70.8781 183.407 71.6412 184.347 71.6412Z" fill="white"/>
<path d="M190.766 71.6412C191.706 71.6412 192.469 70.8781 192.469 69.9368C192.469 68.9955 191.706 68.2324 190.766 68.2324C189.826 68.2324 189.064 68.9955 189.064 69.9368C189.064 70.8781 189.826 71.6412 190.766 71.6412Z" fill="white"/>
<path d="M184.333 74.7985L184.431 74.9522C185.924 77.3691 189.482 77.1875 190.71 74.6309" stroke="white" stroke-width="1.14" stroke-miterlimit="10" stroke-linecap="round"/>
</g>
<defs>
<clipPath id="clip0_499_45543">
<rect width="220" height="126" fill="white"/>
</clipPath>
</defs>
</svg>
