<svg width="56" height="56" viewBox="0 0 56 56" fill="none" xmlns="http://www.w3.org/2000/svg">
<circle cx="28" cy="28" r="27.25" fill="#F4F6F7" stroke="#ADB4BA" stroke-width="1.5" stroke-dasharray="3 3"/>
<path d="M17.9794 19.9088C18.2099 19.5066 18.7901 19.5066 19.0206 19.9088L19.4872 20.7232C19.5724 20.8719 19.7172 20.9771 19.885 21.0122L20.8037 21.2043C21.2575 21.2992 21.4368 21.851 21.1255 22.1946L20.4951 22.89C20.38 23.017 20.3247 23.1872 20.3432 23.3576L20.4444 24.2907C20.4943 24.7517 20.025 25.0927 19.602 24.9027L18.7458 24.5182C18.5895 24.4479 18.4105 24.4479 18.2542 24.5182L17.398 24.9027C16.975 25.0927 16.5057 24.7517 16.5556 24.2907L16.6568 23.3576C16.6753 23.1872 16.62 23.017 16.5049 22.89L15.8745 22.1946C15.5632 21.851 15.7425 21.2992 16.1963 21.2043L17.115 21.0122C17.2828 20.9771 17.4276 20.8719 17.5128 20.7232L17.9794 19.9088Z" fill="#DBDDDF"/>
<path d="M28.9794 13.9086C29.2099 13.5063 29.7901 13.5063 30.0206 13.9086L30.4872 14.723C30.5724 14.8717 30.7172 14.9769 30.885 15.012L31.8037 15.2041C32.2575 15.299 32.4368 15.8508 32.1255 16.1943L31.4951 16.8898C31.38 17.0168 31.3247 17.187 31.3432 17.3574L31.4444 18.2905C31.4943 18.7514 31.025 19.0925 30.602 18.9025L29.7458 18.5179C29.5895 18.4477 29.4105 18.4477 29.2542 18.5179L28.398 18.9025C27.975 19.0925 27.5057 18.7514 27.5556 18.2905L27.6568 17.3574C27.6753 17.187 27.62 17.0168 27.5049 16.8898L26.8745 16.1943C26.5632 15.8508 26.7425 15.299 27.1963 15.2041L28.115 15.012C28.2828 14.9769 28.4276 14.8717 28.5128 14.723L28.9794 13.9086Z" fill="#DBDDDF"/>
<path d="M39.9794 19.9086C40.2099 19.5063 40.7901 19.5063 41.0206 19.9086L41.4872 20.723C41.5724 20.8717 41.7172 20.9769 41.885 21.012L42.8037 21.2041C43.2575 21.299 43.4368 21.8508 43.1255 22.1943L42.4951 22.8898C42.38 23.0168 42.3247 23.187 42.3432 23.3574L42.4444 24.2905C42.4943 24.7514 42.025 25.0925 41.602 24.9025L40.7458 24.5179C40.5895 24.4477 40.4105 24.4477 40.2542 24.5179L39.398 24.9025C38.975 25.0925 38.5057 24.7514 38.5556 24.2905L38.6568 23.3574C38.6753 23.187 38.62 23.0168 38.5049 22.8898L37.8745 22.1943C37.5632 21.8508 37.7425 21.299 38.1963 21.2041L39.115 21.012C39.2828 20.9769 39.4276 20.8717 39.5128 20.723L39.9794 19.9086Z" fill="#DBDDDF"/>
<path d="M24.2923 29.3404C24.2923 29.3404 26.2649 27.7339 27.2497 25.5115C27.7319 24.4221 27.8772 23.7801 28.4233 22.7227C28.8968 21.8105 29.6725 21.3805 30.6892 21.6768C31.9471 22.0429 31.6915 23.1817 31.6915 24.2711C31.6915 25.9996 31.6944 27.6031 31.6944 27.6031C33.1469 27.6031 37.2953 27.1064 37.2982 29.4653C37.2982 30.5518 36.3715 31.4581 35.898 31.3013C36.9554 31.2432 37.4522 31.7457 37.4551 32.8439C37.4551 34.1395 36.6097 34.6014 36.1478 34.5084C36.1478 34.5084 36.7463 34.6101 37.0368 35.7605C37.1849 36.3532 36.9642 37.6604 36.2234 37.6633C35.7498 37.6633 36.54 37.6866 36.5952 37.8347C36.9671 38.8718 36.9322 39.5807 36.1914 40.1036C34.7476 41.1203 30.5469 40.5132 28.4059 40.3156C26.7035 40.1588 24.4231 40.0106 23.691 38.2269L23.6794 29.4653L24.2981 29.3404H24.2923Z" fill="#F4F6F6"/>
<path d="M33.2312 41.254C32.0372 41.254 30.6689 41.132 29.26 40.9839C28.9288 40.949 28.6238 40.9171 28.3507 40.8938L28.1764 40.8793C26.4101 40.7195 23.9931 40.4987 23.1507 38.4478C23.1216 38.378 23.1071 38.3025 23.1071 38.227L23.0955 29.4625C23.0955 29.1865 23.2901 28.9454 23.5632 28.8931L24.0309 28.8001C24.4376 28.4428 25.9308 27.0542 26.7181 25.2763C26.9069 24.8463 27.0463 24.4861 27.1771 24.1404C27.3775 23.6117 27.5663 23.1149 27.9062 22.4584C28.5366 21.2412 29.6086 20.756 30.852 21.1162C32.3568 21.5549 32.3161 22.8593 32.2841 23.8092C32.2783 23.9632 32.2725 24.1172 32.2754 24.2682V27.0048C32.3016 27.0048 32.3248 27.0048 32.351 27.0048C33.8616 26.9525 36.1391 26.8682 37.2547 27.9402C37.6701 28.3411 37.8822 28.8553 37.8851 29.4654C37.8851 30.0958 37.6469 30.6651 37.3302 31.0922C37.3738 31.127 37.4174 31.1619 37.458 31.1997C37.8415 31.5628 38.039 32.1177 38.039 32.8439C38.039 33.9217 37.551 34.4853 37.2576 34.7264C37.2576 34.7264 37.2518 34.7322 37.2489 34.7322C37.3854 34.9588 37.5103 35.2493 37.6033 35.6212C37.7485 36.2051 37.6352 37.1841 37.1966 37.7477C37.1937 37.7535 37.1908 37.7564 37.185 37.7622C37.4726 38.6163 37.6672 39.7783 36.5255 40.583C35.808 41.0885 34.6401 41.2599 33.2341 41.2599L33.2312 41.254ZM24.2662 38.105C24.8879 39.4122 26.7645 39.5836 28.2781 39.7202L28.4524 39.7376C28.7284 39.7638 29.0421 39.7957 29.3762 39.8306C31.3952 40.0397 34.7709 40.3912 35.8515 39.6301C36.1595 39.4122 36.3919 39.1566 36.1217 38.2706C36.0927 38.2648 36.0694 38.2618 36.0549 38.2589C35.4652 38.166 35.4855 37.6808 35.4913 37.6256C35.5116 37.3787 35.654 37.0853 36.2205 37.0853C36.3745 37.0214 36.5749 36.3242 36.4703 35.9059C36.3047 35.2435 36.0433 35.0953 36.0055 35.075C35.7092 35.0024 35.5175 34.709 35.5756 34.4039C35.6337 34.0902 35.9329 33.881 36.2466 33.9391C36.2524 33.9391 36.2582 33.9391 36.2641 33.9391C36.2873 33.9449 36.4035 33.9275 36.5371 33.8113C36.755 33.6196 36.8741 33.2768 36.8741 32.8439C36.8741 32.5738 36.8364 32.2135 36.6562 32.0421C36.5604 31.9521 36.4093 31.8998 36.2031 31.8824C36.0346 31.9114 35.869 31.9027 35.7179 31.8504C35.4535 31.7633 35.288 31.4989 35.3257 31.2229C35.3635 30.9469 35.593 30.7349 35.8719 30.7203C35.9387 30.7174 35.9997 30.7116 36.0636 30.7145C36.2786 30.6012 36.7231 30.1132 36.7231 29.4654C36.7231 29.1749 36.6359 28.957 36.45 28.7769C35.6918 28.0448 33.5478 28.1232 32.3945 28.1639C32.1273 28.1726 31.892 28.1813 31.7002 28.1813C31.5463 28.1813 31.3981 28.1203 31.2906 28.0128C31.1802 27.9024 31.1192 27.7572 31.1192 27.6032V24.2711C31.1163 24.1055 31.1192 23.937 31.125 23.7715C31.1599 22.6908 31.096 22.3974 30.5295 22.2318C29.8323 22.0284 29.3123 22.2754 28.9433 22.9871C28.6354 23.5855 28.464 24.0329 28.2665 24.55C28.1299 24.9131 27.9876 25.2879 27.7842 25.744C26.7558 28.068 24.7484 29.7181 24.6642 29.7878C24.5916 29.8488 24.5044 29.8895 24.4115 29.9069L24.2604 29.936L24.2691 38.0992L24.2662 38.105ZM36.0084 35.075C36.0287 35.0808 36.0433 35.0837 36.0462 35.0837C36.0404 35.0837 36.0375 35.0837 36.0317 35.0837C36.0229 35.0837 36.0171 35.0808 36.0084 35.0779V35.075Z" fill="#DBDDDF"/>
<path d="M24.179 38.2996C24.179 38.7353 23.8479 39.0897 23.4412 39.0926L18.7524 39.0985C18.3428 39.0985 18.0116 38.744 18.0116 38.3083L18 30.2613C18 29.8255 18.3312 29.4711 18.7379 29.4682L23.4295 29.4624C23.8391 29.4624 24.1703 29.8168 24.1703 30.2526L24.179 38.2967V38.2996Z" fill="#DBDDDF"/>
<path d="M34.858 31.8764C34.5384 31.8764 34.277 31.6178 34.277 31.2954C34.277 30.9729 34.5355 30.7144 34.858 30.7144H36.7347C37.0542 30.7144 37.3157 30.9729 37.3157 31.2954C37.3157 31.6178 37.0571 31.8764 36.7347 31.8764H34.858Z" fill="#DBDDDF"/>
<path d="M34.6401 34.9877C34.3206 34.9877 34.0591 34.7292 34.0591 34.4067C34.0591 34.0871 34.3177 33.8257 34.6401 33.8257H36.5168C36.8363 33.8257 37.0978 34.0842 37.0978 34.4067C37.0978 34.7262 36.8392 34.9877 36.5168 34.9877H34.6401Z" fill="#DBDDDF"/>
<path d="M34.5675 38.2269C34.2479 38.2269 33.9865 37.9684 33.9865 37.6459C33.9865 37.3264 34.245 37.0649 34.5675 37.0649H36.4442V37.062C36.7637 37.062 37.0252 37.3206 37.0252 37.643C37.0252 37.9626 36.7666 38.224 36.4442 38.224H34.5675V38.2269Z" fill="#DBDDDF"/>
</svg>
