<svg width="373" height="407" viewBox="0 0 373 407" fill="none" xmlns="http://www.w3.org/2000/svg">
<g filter="url(#filter0_d_1249_20898)">
<path fill-rule="evenodd" clip-rule="evenodd" d="M296.095 97.8228C304.012 95.5622 311.716 91.8198 317.771 85.7723C338.951 64.594 331.859 23.1477 331.859 23.1477C331.859 23.1477 290.409 16.0324 269.229 37.2346C260.145 46.3178 256.262 59.1292 254.789 70.8001C233.989 61.2962 210.863 56 186.5 56C95.6492 56 22 129.649 22 220.5C22 311.351 95.6492 385 186.5 385C277.351 385 351 311.351 351 220.5C351 171.746 329.791 127.946 296.095 97.8228Z" fill="white"/>
</g>
<defs>
<filter id="filter0_d_1249_20898" x="0.1" y="0.1" width="372.8" height="406.8" filterUnits="userSpaceOnUse" color-interpolation-filters="sRGB">
<feFlood flood-opacity="0" result="BackgroundImageFix"/>
<feColorMatrix in="SourceAlpha" type="matrix" values="0 0 0 0 0 0 0 0 0 0 0 0 0 0 0 0 0 0 127 0" result="hardAlpha"/>
<feOffset/>
<feGaussianBlur stdDeviation="10.95"/>
<feComposite in2="hardAlpha" operator="out"/>
<feColorMatrix type="matrix" values="0 0 0 0 0 0 0 0 0 0 0 0 0 0 0 0 0 0 0.05 0"/>
<feBlend mode="normal" in2="BackgroundImageFix" result="effect1_dropShadow_1249_20898"/>
<feBlend mode="normal" in="SourceGraphic" in2="effect1_dropShadow_1249_20898" result="shape"/>
</filter>
</defs>
</svg>
