<svg width="830" height="704" viewBox="0 0 830 704" fill="none" xmlns="http://www.w3.org/2000/svg">
<path fill-rule="evenodd" clip-rule="evenodd" d="M331.518 155.075C314.96 155.075 301.53 168.505 301.53 185.063V329.147L286.601 334.692C146.345 386.793 46.4764 521.845 46.4764 680.191C46.4764 692.841 36.2216 703.096 23.5717 703.096C10.9218 703.096 0.666992 692.841 0.666992 680.191C0.666992 507.762 105.977 360.003 255.72 297.63V185.063C255.72 143.205 289.66 109.266 331.518 109.266H493.143C534.535 109.266 568.282 142.477 568.891 183.923C568.891 183.921 568.891 183.925 568.891 183.923C568.891 183.925 568.891 183.932 568.891 183.933L570.578 296.216C722.199 357.739 829.19 506.475 829.19 680.238C829.19 692.888 818.935 703.143 806.285 703.143C793.635 703.143 783.38 692.888 783.38 680.238C783.38 520.749 682.013 384.856 540.125 333.593L525.244 328.216L523.087 184.6C522.848 168.197 509.509 155.075 493.143 155.075H331.518Z" fill="#FF881A"/>
<path d="M412.074 304.936C449.765 304.936 480.319 274.382 480.319 236.691C480.319 199 449.765 168.446 412.074 168.446C374.384 168.446 343.829 199 343.829 236.691C343.829 274.382 374.384 304.936 412.074 304.936Z" fill="#FF881A"/>
<path fill-rule="evenodd" clip-rule="evenodd" d="M375.839 203.974C382.099 197.714 392.247 197.714 398.506 203.974L420.319 225.786C426.578 232.046 426.578 242.194 420.319 248.453C414.059 254.713 403.911 254.713 397.651 248.453L375.839 226.641C369.58 220.382 369.58 210.233 375.839 203.974Z" fill="white"/>
<path d="M217.217 484.025C211.038 477.846 205.889 470.591 202.519 462.447C196.013 446.766 193.626 423.222 224.191 405.95C224.191 405.95 293.7 365.743 349.447 357.785C351.741 357.458 353.988 357.083 356.234 356.568C365.362 354.462 396.816 350.624 404.212 394.904C404.821 398.461 405.008 402.065 405.008 405.669L404.399 620.983C404.399 622.247 404.399 623.511 404.493 624.775C404.727 629.549 404.867 644.949 396.068 648.366C396.068 648.366 386.238 653.046 371.494 638.302L217.217 484.025Z" fill="white"/>
<path d="M424.522 406.943C424.522 398.19 426.02 389.437 429.39 381.339C435.897 365.659 450.828 347.31 484.623 356.719C484.623 356.719 562.183 377.408 607.258 411.203C609.084 412.56 610.956 413.917 612.922 415.134C620.879 420.096 645.828 439.615 619.756 476.171C617.65 479.12 615.263 481.788 612.735 484.316L460.049 636.112C459.16 637.001 458.271 637.938 457.428 638.874C454.198 642.431 443.433 653.384 434.773 649.593C434.773 649.593 424.522 645.942 424.522 625.112V406.943Z" fill="white"/>
<path d="M140.497 692.366C131.744 692.366 122.991 690.869 114.894 687.498C99.2131 680.992 80.8646 666.061 90.2729 632.266C90.2729 632.266 110.962 554.706 144.757 509.63C146.114 507.805 147.472 505.933 148.689 503.967C153.65 496.009 173.169 471.061 209.725 497.133C212.674 499.239 215.342 501.626 217.87 504.154L369.666 656.84C370.556 657.729 371.492 658.618 372.428 659.461C375.985 662.691 386.938 673.456 383.147 682.116C383.147 682.116 379.496 692.366 358.667 692.366H140.497Z" fill="white"/>
<path d="M613.538 504.437C619.716 498.259 626.972 493.11 635.116 489.74C650.797 483.233 674.341 480.846 691.613 511.412C691.613 511.412 731.82 580.921 739.777 636.668C740.105 638.962 740.48 641.208 740.994 643.455C743.101 652.583 746.939 684.037 702.659 691.433C699.102 692.041 695.498 692.229 691.893 692.229L476.579 691.62C475.316 691.62 474.052 691.62 472.788 691.714C468.014 691.948 452.614 692.088 449.197 683.288C449.197 683.288 444.516 673.459 459.261 658.714L613.538 504.437Z" fill="white"/>
<path fill-rule="evenodd" clip-rule="evenodd" d="M114.894 687.498C122.991 690.869 131.744 692.366 140.497 692.366H358.667C379.496 692.366 383.147 682.116 383.147 682.116C386.938 673.456 375.985 662.691 372.428 659.461C371.492 658.618 370.556 657.729 369.666 656.84L217.87 504.154C215.342 501.626 212.674 499.239 209.726 497.133C178.768 475.054 160.029 489.564 152.002 499.359C152.119 499.422 152.236 499.488 152.352 499.555L177.019 513.831C183.593 517.636 185.838 526.049 182.034 532.623C178.229 539.197 169.815 541.442 163.241 537.637L138.574 523.361C137.786 522.905 137.06 522.383 136.4 521.806C129.275 533.072 122.854 545.519 117.224 557.875C117.254 557.888 117.285 557.902 117.315 557.915L143.481 569.242C150.451 572.26 153.655 580.357 150.638 587.327C147.62 594.297 139.523 597.502 132.553 594.484L106.595 583.247C100.263 599.648 95.6346 614.087 92.9562 622.97L120.093 626.795C127.614 627.855 132.852 634.812 131.792 642.333C130.732 649.854 123.775 655.092 116.254 654.032L88.029 650.053C87.9224 650.038 87.8162 650.022 87.7105 650.004C87.9384 671.578 102.279 682.264 114.894 687.498Z" fill="#FF881A"/>
<path fill-rule="evenodd" clip-rule="evenodd" d="M635.116 489.74C626.972 493.11 619.716 498.259 613.538 504.437L459.261 658.714C444.516 673.459 449.197 683.288 449.197 683.288C452.614 692.088 468.014 691.948 472.788 691.714C474.052 691.62 475.316 691.62 476.579 691.62L691.893 692.229C695.498 692.229 699.102 692.041 702.659 691.433C737.679 685.584 742.602 664.687 742.087 651.687C740.704 652.284 739.198 652.661 737.611 652.774L709.199 654.787C701.622 655.323 695.045 649.616 694.508 642.04C693.971 634.463 699.678 627.886 707.255 627.349L735.667 625.337C736.38 625.286 737.084 625.291 737.775 625.347C734.922 611.678 730.505 597.54 725.51 584.069C724.998 584.327 724.464 584.555 723.909 584.752L697.088 594.254C689.929 596.79 682.068 593.042 679.532 585.883C676.996 578.723 680.743 570.863 687.903 568.327L714.723 558.825C714.877 558.771 715.031 558.719 715.185 558.67C708.511 543.505 701.953 530.561 697.455 522.075C696.979 522.386 696.479 522.67 695.956 522.926L670.352 535.423C663.526 538.755 655.292 535.923 651.96 529.097C648.628 522.271 651.461 514.037 658.287 510.705L682.606 498.834C666.779 481.747 648.207 484.308 635.116 489.74Z" fill="#FF881A"/>
<path fill-rule="evenodd" clip-rule="evenodd" d="M339.022 359.603C325.989 362.261 312.506 366.366 299.563 371.057C299.73 371.396 299.885 371.744 300.026 372.101L310.511 398.594C313.306 405.656 309.847 413.648 302.784 416.443C295.722 419.238 287.731 415.778 284.936 408.716L274.451 382.223C274.319 381.891 274.202 381.557 274.098 381.221C258.389 388.029 244.854 394.835 235.858 399.577C235.96 399.703 236.06 399.832 236.159 399.962L253.29 422.711C257.859 428.778 256.645 437.401 250.578 441.97C244.51 446.539 235.887 445.325 231.318 439.257L214.187 416.509C213.585 415.71 213.084 414.867 212.681 413.995C194.423 430.027 196.977 449.09 202.519 462.447C205.889 470.591 211.038 477.846 217.217 484.025L371.494 638.302C386.238 653.046 396.068 648.366 396.068 648.366C404.867 644.949 404.727 629.549 404.493 624.775C404.399 623.511 404.399 622.247 404.399 620.983L405.008 405.669C405.008 402.065 404.821 398.461 404.212 394.904C398.59 361.245 379.068 355.389 366.017 355.442C366.03 355.491 366.044 355.541 366.057 355.591L373.406 383.114C375.366 390.452 371.005 397.99 363.667 399.949C356.328 401.909 348.791 397.548 346.831 390.21L339.483 362.687C339.208 361.658 339.057 360.625 339.022 359.603Z" fill="#FF881A"/>
<path fill-rule="evenodd" clip-rule="evenodd" d="M467.067 354.154C445.371 354.303 434.639 368.689 429.39 381.339C426.02 389.437 424.522 398.19 424.522 406.943V625.112C424.522 645.941 434.773 649.592 434.773 649.592C443.433 653.384 454.198 642.431 457.428 638.874C458.271 637.937 459.16 637.001 460.049 636.112L612.735 484.315C615.263 481.788 617.65 479.12 619.756 476.171C641.658 445.461 627.554 426.774 617.765 418.642C617.635 418.904 617.496 419.163 617.348 419.42L603.119 444.088C599.324 450.667 590.913 452.924 584.334 449.128C577.755 445.333 575.498 436.923 579.293 430.344L593.522 405.676C594.075 404.717 594.726 403.851 595.455 403.081C584.165 395.909 571.669 389.446 559.257 383.78C559.174 384 559.086 384.22 558.992 384.439L547.711 410.557C544.7 417.53 536.605 420.742 529.633 417.73C522.66 414.718 519.448 406.624 522.46 399.651L533.74 373.533C533.797 373.402 533.855 373.273 533.915 373.146C517.488 366.794 503.005 362.144 494.06 359.444L490.143 387.189C489.081 394.71 482.123 399.946 474.602 398.884C467.081 397.822 461.845 390.864 462.907 383.343L466.886 355.165C466.934 354.823 466.995 354.486 467.067 354.154Z" fill="#FF881A"/>
<path fill-rule="evenodd" clip-rule="evenodd" d="M454.63 194.321C460.889 200.58 460.889 210.728 454.63 216.988L421.912 249.706C415.652 255.966 405.504 255.966 399.244 249.706C392.985 243.447 392.985 233.298 399.244 227.039L431.963 194.321C438.222 188.061 448.371 188.061 454.63 194.321Z" fill="white"/>
<path d="M494.174 82.8357C466.651 110.358 412.822 101.137 412.822 101.137C412.822 101.137 403.601 47.3088 431.124 19.7861C458.647 -7.73666 512.475 1.4844 512.475 1.4844C512.475 1.4844 521.696 55.3129 494.174 82.8357Z" fill="#A5CC2B"/>
</svg>
