<svg width="64" height="64" viewBox="0 0 64 64" fill="none" xmlns="http://www.w3.org/2000/svg">
<circle cx="32" cy="31.9997" r="26.6667" fill="#222222"/>
<path fill-rule="evenodd" clip-rule="evenodd" d="M35.9326 20C36.1103 21.2072 35.619 22.3898 34.9708 23.2266C34.2773 24.1241 33.082 24.8182 31.9238 24.782C31.7124 23.6262 32.2537 22.4354 32.9124 21.6349C33.6349 20.7514 34.8732 20.0736 35.9326 20ZM39.4116 36.9919C40.0087 36.0769 40.2318 35.6153 40.6952 34.5822C37.3242 33.3003 36.784 28.5077 40.1202 26.6683C39.1027 25.3922 37.6727 24.6525 36.3229 24.6525C35.3503 24.6525 34.6839 24.9063 34.0781 25.137C33.5732 25.3293 33.1105 25.5055 32.5476 25.5055C31.9393 25.5055 31.4007 25.3124 30.8367 25.1102C30.2169 24.888 29.5666 24.6548 28.7595 24.6548C27.2448 24.6548 25.6324 25.5803 24.6102 27.1627C23.1733 29.3912 23.4184 33.5807 25.7486 37.1497C26.5815 38.427 27.6943 39.8621 29.1498 39.8749C29.7538 39.8809 30.1557 39.7007 30.5906 39.5056C31.0884 39.2824 31.6294 39.0397 32.5662 39.0347C33.5085 39.0291 34.041 39.2747 34.5322 39.5012C34.9559 39.6967 35.3489 39.8779 35.9477 39.8714C37.4044 39.8597 38.5788 38.2692 39.4116 36.9919Z" fill="white"/>
</svg>
