<svg width="24" height="24" viewBox="0 0 24 24" fill="none" xmlns="http://www.w3.org/2000/svg">
<path d="M7.14 8.625H5.25C4.0125 8.625 3 9.6375 3 10.875V16.5C3 17.7375 4.0125 18.75 5.25 18.75H18.75C19.9875 18.75 21 17.7375 21 16.5V10.875C21 9.6375 19.9875 8.625 18.75 8.625H16.86L16.4213 6.9375C16.1625 5.9475 15.2625 5.25 14.2387 5.25H9.73875C8.715 5.25 7.815 5.9475 7.55625 6.9375L7.1175 8.625H7.14ZM5.39625 6.375C5.89125 4.42875 7.6575 3 9.75 3H14.25C16.2975 3 18.0975 4.38375 18.6038 6.375H18.75C21.2362 6.375 23.25 8.38875 23.25 10.875V16.5C23.25 18.9862 21.2362 21 18.75 21H5.25C2.76375 21 0.75 18.9862 0.75 16.5V10.875C0.75 8.38875 2.76375 6.375 5.25 6.375H5.39625ZM12 17.625C9.51375 17.625 7.5 15.6112 7.5 13.125C7.5 10.6388 9.51375 8.625 12 8.625C14.4862 8.625 16.5 10.6388 16.5 13.125C16.5 15.6112 14.4862 17.625 12 17.625ZM12 15.375C13.2375 15.375 14.25 14.3625 14.25 13.125C14.25 11.8875 13.2375 10.875 12 10.875C10.7625 10.875 9.75 11.8875 9.75 13.125C9.75 14.3625 10.7625 15.375 12 15.375ZM18.75 12C19.3687 12 19.875 11.4937 19.875 10.875C19.875 10.2562 19.3687 9.75 18.75 9.75C18.1313 9.75 17.625 10.2562 17.625 10.875C17.625 11.4937 18.1313 12 18.75 12Z" fill="#778088"/>
</svg>
