<svg width="76" height="68" viewBox="0 0 76 68" fill="none" xmlns="http://www.w3.org/2000/svg">
<g filter="url(#filter0_d_360_23457)">
<rect width="43" height="47" rx="8" transform="matrix(-0.99093 -0.13438 -0.13438 0.99093 68.9258 10.7783)" fill="white"/>
<rect x="-0.562655" y="0.428275" width="42" height="46" rx="7.5" transform="matrix(-0.99093 -0.13438 -0.13438 0.99093 67.8632 10.7066)" stroke="#ECEDF0"/>
</g>
<g filter="url(#filter1_d_360_23457)">
<rect x="5" y="8.01953" width="43" height="47" rx="8" transform="rotate(-7.72275 5 8.01953)" fill="white"/>
<rect x="5.56265" y="8.44781" width="42" height="46" rx="7.5" transform="rotate(-7.72275 5.56265 8.44781)" stroke="#ECEDF0"/>
</g>
<path d="M23.3248 18.9451C20.5653 19.3193 19.3836 20.8135 19.1376 21.5138L20.9199 34.6565C21.1076 33.9641 22.3039 32.4679 25.5874 32.0226C29.6917 31.466 31.4625 34.6498 35.2481 34.4032C39.0337 34.1566 39.5518 32.6931 40.35 32.0216L38.4834 18.2568C37.6305 19.5362 36.651 21.1399 33.5073 21.5662C29.5776 22.0991 26.7742 18.4773 23.3248 18.9451Z" fill="#F67600" stroke="#F67600" stroke-width="2.2" stroke-miterlimit="10" stroke-linecap="round" stroke-linejoin="round"/>
<path d="M21.7498 40.7768L19.136 21.5022" stroke="black" stroke-width="2.2" stroke-miterlimit="10" stroke-linecap="round"/>
<defs>
<filter id="filter0_d_360_23457" x="15.0015" y="3.00146" width="60.9228" height="64.3491" filterUnits="userSpaceOnUse" color-interpolation-filters="sRGB">
<feFlood flood-opacity="0" result="BackgroundImageFix"/>
<feColorMatrix in="SourceAlpha" type="matrix" values="0 0 0 0 0 0 0 0 0 0 0 0 0 0 0 0 0 0 127 0" result="hardAlpha"/>
<feOffset dx="1" dy="4"/>
<feGaussianBlur stdDeviation="3.5"/>
<feComposite in2="hardAlpha" operator="out"/>
<feColorMatrix type="matrix" values="0 0 0 0 0.5625 0 0 0 0 0.5625 0 0 0 0 0.5625 0 0 0 0.15 0"/>
<feBlend mode="normal" in2="BackgroundImageFix" result="effect1_dropShadow_360_23457"/>
<feBlend mode="normal" in="SourceGraphic" in2="effect1_dropShadow_360_23457" result="shape"/>
</filter>
<filter id="filter1_d_360_23457" x="0.00152969" y="0.242676" width="60.9228" height="64.3491" filterUnits="userSpaceOnUse" color-interpolation-filters="sRGB">
<feFlood flood-opacity="0" result="BackgroundImageFix"/>
<feColorMatrix in="SourceAlpha" type="matrix" values="0 0 0 0 0 0 0 0 0 0 0 0 0 0 0 0 0 0 127 0" result="hardAlpha"/>
<feOffset dx="1" dy="4"/>
<feGaussianBlur stdDeviation="3.5"/>
<feComposite in2="hardAlpha" operator="out"/>
<feColorMatrix type="matrix" values="0 0 0 0 0.5625 0 0 0 0 0.5625 0 0 0 0 0.5625 0 0 0 0.15 0"/>
<feBlend mode="normal" in2="BackgroundImageFix" result="effect1_dropShadow_360_23457"/>
<feBlend mode="normal" in="SourceGraphic" in2="effect1_dropShadow_360_23457" result="shape"/>
</filter>
</defs>
</svg>
