<svg width="18" height="18" viewBox="0 0 18 18" fill="none" xmlns="http://www.w3.org/2000/svg">
<path d="M14.0907 1.84177C15.1862 2.93724 14.4292 5.47038 13.099 6.8006C11.7687 8.13082 9.80232 8.32112 8.70684 7.22564C7.61137 6.13017 7.94335 4.30543 9.27357 2.97521C10.6038 1.64499 12.9952 0.74629 14.0907 1.84177Z" fill="#85DC58"/>
<path d="M10.2703 5.3513C10.6757 4.86481 11.2432 4.13508 12.4595 3.16211" stroke="#5DAA36" stroke-width="1.6" stroke-linecap="round"/>
<path d="M9.90111 6.69164C9.68278 5.67426 8.86717 3.26473 7.35132 1.76562" stroke="#8A4C14" stroke-width="3" stroke-linecap="round"/>
<circle cx="8.81082" cy="11.1892" r="6.81082" fill="#FF881A"/>
<path fill-rule="evenodd" clip-rule="evenodd" d="M5.56301 11.8446C5.77299 11.6189 6.11344 11.6189 6.32342 11.8446C7.69723 13.3211 9.92462 13.3211 11.2984 11.8446C11.5084 11.6189 11.8489 11.6189 12.0589 11.8446C12.2688 12.0702 12.2688 12.4361 12.0589 12.6618C10.2651 14.5897 7.35678 14.5897 5.56301 12.6618C5.35302 12.4361 5.35302 12.0702 5.56301 11.8446Z" fill="#934600"/>
<path fill-rule="evenodd" clip-rule="evenodd" d="M6.62158 8.75659C7.0246 8.75659 7.35131 9.01796 7.35131 9.34038V10.1188C7.35131 10.4412 7.0246 10.7025 6.62158 10.7025C6.21856 10.7025 5.89185 10.4412 5.89185 10.1188V9.34038C5.89185 9.01796 6.21856 8.75659 6.62158 8.75659Z" fill="#934600"/>
<path fill-rule="evenodd" clip-rule="evenodd" d="M11 8.75659C11.403 8.75659 11.7297 9.01796 11.7297 9.34038V10.1188C11.7297 10.4412 11.403 10.7025 11 10.7025C10.597 10.7025 10.2703 10.4412 10.2703 10.1188V9.34038C10.2703 9.01796 10.597 8.75659 11 8.75659Z" fill="#934600"/>
</svg>
