<svg width="24" height="24" viewBox="0 0 24 24" fill="none" xmlns="http://www.w3.org/2000/svg">
<path d="M10.1611 6.58211C9.89588 6.90032 9.93887 7.37324 10.2571 7.63841C10.5753 7.90358 11.0482 7.86059 11.3134 7.54238L10.1611 6.58211ZM11.7091 4.39338L11.2074 4.95085L11.7091 4.39338ZM9.7998 10.7746V4.24536H8.2998V10.7746H9.7998ZM10.217 4.05954L11.2074 4.95085L12.2108 3.83591L11.2205 2.9446L10.217 4.05954ZM11.2322 5.29672L10.1611 6.58211L11.3134 7.54238L12.3845 6.257L11.2322 5.29672ZM11.2074 4.95085C11.3073 5.04074 11.3182 5.1935 11.2322 5.29672L12.3845 6.257C12.9867 5.53443 12.91 4.46512 12.2108 3.83591L11.2074 4.95085ZM9.7998 4.24536C9.7998 4.02892 10.0562 3.91474 10.217 4.05954L11.2205 2.9446C10.0943 1.93105 8.2998 2.73026 8.2998 4.24536H9.7998Z" fill="#262C31"/>
<circle cx="7.0249" cy="10.7749" r="2.0249" stroke="#262C31" stroke-width="1.5" stroke-linejoin="round"/>
<circle cx="14.7694" cy="15.3314" r="4.89974" stroke="#262C31" stroke-width="1.5" stroke-linejoin="round"/>
<path d="M18.7505 12.2686V12.2686C15.9086 13.3211 15.9086 17.3407 18.7505 18.3932V18.3932" stroke="#262C31" stroke-width="1.5" stroke-linejoin="round"/>
<path d="M10.7886 12.2686V12.2686C13.6305 13.3211 13.6305 17.3407 10.7886 18.3932V18.3932" stroke="#262C31" stroke-width="1.5" stroke-linejoin="round"/>
</svg>
