<svg width="20" height="20" viewBox="0 0 20 20" fill="none" xmlns="http://www.w3.org/2000/svg">
<g clip-path="url(#clip0_1513_20661)">
<path d="M15.8333 1.66675C16.7538 1.66675 17.5 2.41294 17.5 3.33341V13.3334C17.5 14.2539 16.7538 15.0001 15.8333 15.0001H14.1667V16.6667C14.1667 17.5872 13.4205 18.3334 12.5 18.3334H4.16667C3.24619 18.3334 2.5 17.5872 2.5 16.6667V6.66675C2.5 5.74627 3.24619 5.00008 4.16667 5.00008H5.83333V3.33341C5.83333 2.41294 6.57952 1.66675 7.5 1.66675H15.8333ZM12.5 6.66675H4.16667V16.6667H12.5V6.66675ZM8.33333 12.5001C8.79358 12.5001 9.16667 12.8732 9.16667 13.3334C9.16667 13.7937 8.79358 14.1667 8.33333 14.1667H6.66667C6.20643 14.1667 5.83333 13.7937 5.83333 13.3334C5.83333 12.8732 6.20643 12.5001 6.66667 12.5001H8.33333ZM15.8333 3.33341H7.5V5.00008H12.5C13.4205 5.00008 14.1667 5.74627 14.1667 6.66675V13.3334H15.8333V3.33341ZM10 9.16675C10.4602 9.16675 10.8333 9.53983 10.8333 10.0001C10.8333 10.4275 10.5116 10.7797 10.0972 10.8278L10 10.8334H6.66667C6.20643 10.8334 5.83333 10.4603 5.83333 10.0001C5.83333 9.57271 6.15504 9.22049 6.56948 9.17235L6.66667 9.16675H10Z" fill="#ADB4BA"/>
</g>
<defs>
<clipPath id="clip0_1513_20661">
<rect width="20" height="20" fill="white"/>
</clipPath>
</defs>
</svg>
