<svg width="24" height="24" viewBox="0 0 24 24" fill="none" xmlns="http://www.w3.org/2000/svg">
<path d="M12.4455 17.5291L13.4449 17.5614L13.4783 16.5291H12.4455V17.5291ZM14.2132 19.7804L14.9814 20.4206V20.4206L14.2132 19.7804ZM16.1212 17.4908L15.9835 16.5003L15.6005 16.5536L15.3529 16.8506L16.1212 17.4908ZM5.43463 8.15088C5.43463 6.49403 6.77778 5.15088 8.43463 5.15088V3.15088C5.67321 3.15088 3.43463 5.38946 3.43463 8.15088H5.43463ZM5.43463 13.5291V8.15088H3.43463V13.5291H5.43463ZM8.43463 16.5291C6.77778 16.5291 5.43463 15.186 5.43463 13.5291H3.43463C3.43463 16.2905 5.67321 18.5291 8.43463 18.5291V16.5291ZM12.4455 16.5291H8.43463V18.5291H12.4455V16.5291ZM13.4449 17.562L13.4449 17.5614L11.446 17.4968C11.4453 17.5185 11.4449 17.5402 11.4449 17.562H13.4449ZM13.4449 19.1402V17.562H11.4449V19.1402H13.4449ZM13.4449 19.1402L13.4449 19.1402H11.4449C11.4449 21.0108 13.7839 21.8576 14.9814 20.4206L13.4449 19.1402ZM15.3529 16.8506L13.4449 19.1402L14.9814 20.4206L16.8894 18.131L15.3529 16.8506ZM18.5653 13.5291C18.5653 15.0437 17.442 16.2976 15.9835 16.5003L16.2588 18.4813C18.6924 18.143 20.5653 16.0556 20.5653 13.5291H18.5653ZM18.5653 8.15088V13.5291H20.5653V8.15088H18.5653ZM15.5653 5.15088C17.2222 5.15088 18.5653 6.49402 18.5653 8.15088H20.5653C20.5653 5.38945 18.3268 3.15088 15.5653 3.15088V5.15088ZM8.43463 5.15088H15.5653V3.15088H8.43463V5.15088Z" fill="#ADB4BA"/>
<path d="M7.99487 8.60107H15.1152" stroke="#ADB4BA" stroke-width="2" stroke-linecap="round"/>
<path d="M7.99487 12.1611H11.555" stroke="#ADB4BA" stroke-width="2" stroke-linecap="round"/>
</svg>
