<svg width="24" height="24" viewBox="0 0 24 24" fill="none" xmlns="http://www.w3.org/2000/svg">
<circle cx="12" cy="12" r="9" stroke="#ADB4BA" stroke-width="2" stroke-miterlimit="10" stroke-linecap="round" stroke-linejoin="round"/>
<circle cx="12" cy="9.75059" r="3.15" stroke="#ADB4BA" stroke-width="2" stroke-miterlimit="10" stroke-linecap="round" stroke-linejoin="round"/>
<path d="M6.1507 18.8393L5.15081 18.8543C5.15513 19.1412 5.28247 19.4124 5.50044 19.599L6.1507 18.8393ZM17.8493 18.8392L18.4996 19.5989C18.7176 19.4123 18.8449 19.1411 18.8492 18.8542L17.8493 18.8392ZM7.15059 18.8242C7.15021 18.7993 7.15002 18.7744 7.15002 18.7494H5.15002C5.15002 18.7844 5.15029 18.8194 5.15081 18.8543L7.15059 18.8242ZM7.15002 18.7494C7.15002 16.0708 9.32144 13.8994 12 13.8994V11.8994C8.21687 11.8994 5.15002 14.9663 5.15002 18.7494H7.15002ZM12 13.8994C14.6786 13.8994 16.85 16.0708 16.85 18.7494H18.85C18.85 14.9663 15.7832 11.8994 12 11.8994V13.8994ZM16.85 18.7494C16.85 18.7743 16.8498 18.7993 16.8495 18.8242L18.8492 18.8542C18.8498 18.8194 18.85 18.7845 18.85 18.7494H16.85ZM17.1991 18.0795C15.8003 19.2768 13.9857 19.999 12 19.999V21.999C14.4804 21.999 16.7522 21.0947 18.4996 19.5989L17.1991 18.0795ZM12 19.999C10.0143 19.999 8.19978 19.2768 6.80096 18.0795L5.50044 19.599C7.24789 21.0947 9.5196 21.999 12 21.999V19.999Z" fill="#ADB4BA"/>
</svg>
