<svg width="24" height="24" viewBox="0 0 24 24" fill="none" xmlns="http://www.w3.org/2000/svg">
<path d="M10.7176 4.5H13.2828C16.0442 4.5 18.2828 6.73858 18.2828 9.5V12.0652" stroke="#ADB4BA" stroke-width="2" stroke-linecap="round"/>
<path d="M18.6649 16.0253C18.4651 16.262 18.1005 16.262 17.9007 16.0253L14.9863 12.5723C14.7119 12.2472 14.943 11.7498 15.3684 11.7498L21.1972 11.7498C21.6226 11.7498 21.8537 12.2472 21.5793 12.5723L18.6649 16.0253Z" fill="#ADB4BA"/>
<path d="M13.4474 19L10.8822 19C8.12078 19 5.8822 16.7614 5.8822 14L5.8822 11.4348" stroke="#ADB4BA" stroke-width="2" stroke-linecap="round"/>
<path d="M5.50012 7.47468C5.69987 7.23801 6.06455 7.23801 6.26431 7.47468L9.17874 10.9277C9.45311 11.2528 9.22204 11.7502 8.79665 11.7502L2.96777 11.7502C2.54239 11.7502 2.31131 11.2528 2.58568 10.9277L5.50012 7.47468Z" fill="#ADB4BA"/>
</svg>
