<svg width="24" height="24" viewBox="0 0 24 24" fill="none" xmlns="http://www.w3.org/2000/svg">
<path d="M12.5 2.34375C10.25 2.34375 5.75 3.64026 5.75 8.82632V11.5013C5.75 12.5877 5.52871 13.6628 5.09962 14.6609L4.59969 15.8238C4.31596 16.4838 4.79999 17.2187 5.51839 17.2187H9.125M12.5 2.34375C17.9 2.34375 19.25 6.66547 19.25 8.82632V11.5013C19.25 12.5877 19.4713 13.6628 19.9004 14.6609L20.4003 15.8238C20.684 16.4838 20.2 17.2187 19.4816 17.2187H15.875M9.125 17.2187H15.875Z" stroke="#ADB4BA" stroke-width="2" stroke-linecap="round" stroke-linejoin="round"/>
<path d="M9.3125 19V19C10.6353 21.1165 13.6255 21.3566 15.269 19.4782L15.6875 19" stroke="#ADB4BA" stroke-width="2" stroke-linecap="round" stroke-linejoin="round"/>
<path d="M11.121 6.59375C10.6689 6.74446 9.6742 7.40758 9.3125 8.85439" stroke="#ADB4BA" stroke-width="2" stroke-linecap="round" stroke-linejoin="round"/>
</svg>
