<svg width="24" height="24" viewBox="0 0 24 24" fill="none" xmlns="http://www.w3.org/2000/svg">
<circle cx="12" cy="12" r="12" fill="#FFE6CF"/>
<path fill-rule="evenodd" clip-rule="evenodd" d="M12.8897 7.40799C12.8897 7.40799 14.4474 8.1208 15.4997 7.51114C16.552 6.90148 16.7142 5.19363 16.7142 5.19363C16.7142 5.19363 15.1615 4.48215 14.1043 5.09048C13.0519 5.70014 12.8897 7.40799 12.8897 7.40799ZM16.2673 14.5007C15.5307 17.2497 12.7082 18.8835 9.96663 18.1489C7.22261 17.4137 5.5976 14.5882 6.33419 11.8392C7.07077 9.09019 9.89083 7.45574 12.6348 8.19099C15.3789 8.92625 17.0039 11.7518 16.2673 14.5007Z" fill="#A5CC2B"/>
<path d="M9.96679 18.1491C12.7083 18.8837 15.5309 17.2499 16.2674 14.5009C17.004 11.7519 15.379 8.92639 12.635 8.19113C9.89099 7.45588 7.07094 9.09033 6.33435 11.8393C5.59776 14.5883 7.22277 17.4138 9.96679 18.1491Z" fill="#FF881A"/>
<path d="M15.4999 7.51094C14.4476 8.12059 12.8899 7.40779 12.8899 7.40779C12.8899 7.40779 13.0521 5.69993 14.1044 5.09028C15.1617 4.48195 16.7144 5.19343 16.7144 5.19343C16.7144 5.19343 16.5522 6.90128 15.4999 7.51094Z" fill="#A5CC2B"/>
</svg>
