<svg width="24" height="24" viewBox="0 0 24 24" fill="none" xmlns="http://www.w3.org/2000/svg">
<path fill-rule="evenodd" clip-rule="evenodd" d="M19.2509 15.5606C19.5657 14.935 18.9876 14.2842 18.2872 14.2842C13.8398 14.2842 10.2344 10.6788 10.2344 6.23139C10.2344 5.20993 9.35091 4.28912 8.43843 4.7482C5.80604 6.0726 4 8.79853 4 11.9463C4 16.3937 7.60537 19.9991 12.0528 19.9991C15.2006 19.9991 17.9265 18.193 19.2509 15.5606Z" fill="#778088"/>
<path d="M14.7142 5.20295C14.5203 4.78124 14.9557 4.34588 15.3774 4.53979L16.9157 5.24716C17.0483 5.30812 17.2009 5.30812 17.3335 5.24716L18.8719 4.53979C19.2936 4.34588 19.7289 4.78124 19.535 5.20295L18.8277 6.74131C18.7667 6.8739 18.7667 7.0265 18.8277 7.15908L19.535 8.69744C19.7289 9.11915 19.2936 9.55451 18.8719 9.3606L17.3335 8.65323C17.2009 8.59227 17.0483 8.59227 16.9157 8.65323L15.3774 9.3606C14.9557 9.55451 14.5203 9.11915 14.7142 8.69744L15.4216 7.15908C15.4825 7.0265 15.4825 6.87389 15.4216 6.74131L14.7142 5.20295Z" fill="#778088"/>
</svg>
