<svg width="14" height="15" viewBox="0 0 14 15" fill="none" xmlns="http://www.w3.org/2000/svg">
<path fill-rule="evenodd" clip-rule="evenodd" d="M13.1302 10.1155C12.4838 10.2183 12.0982 10.8904 12.3296 11.5001C12.6454 12.3301 11.8301 13.1454 11.0001 12.8296C10.3904 12.5982 9.71833 12.9875 9.6155 13.6302C9.47227 14.5116 8.35945 14.8091 7.79753 14.1187C7.38619 13.6118 6.61126 13.6118 6.19992 14.1187C5.63801 14.8055 4.52519 14.508 4.38196 13.6302C4.27545 12.9838 3.60702 12.5982 2.99736 12.8296C2.16734 13.1454 1.35201 12.3301 1.66786 11.5001C1.89924 10.8904 1.50993 10.2183 0.867219 10.1155C-0.01422 9.97224 -0.311706 8.85942 0.378755 8.2975C0.885582 7.88617 0.885582 7.11123 0.378755 6.6999C-0.308033 6.13798 -0.0105473 5.02516 0.867219 4.88193C1.51361 4.77542 1.89924 4.107 1.66786 3.49733C1.35201 2.66731 2.16734 1.85198 2.99736 2.16783C3.60702 2.39921 4.27912 2.00991 4.38196 1.36719C4.52519 0.489424 5.63801 0.191939 6.19992 0.878726C6.61126 1.38555 7.38619 1.38555 7.79753 0.878726C8.35945 0.191939 9.47227 0.489424 9.6155 1.36719C9.72201 2.01358 10.3904 2.39921 11.0001 2.16783C11.8301 1.85198 12.6454 2.66731 12.3296 3.49733C12.0982 4.107 12.4875 4.77909 13.1302 4.88193C14.0117 5.02516 14.3092 6.13798 13.6187 6.6999C13.1119 7.11123 13.1119 7.88617 13.6187 8.2975C14.3055 8.85942 14.008 9.97224 13.1302 10.1155ZM6.21197 3.99056C6.21197 3.56101 6.56019 3.21278 6.98975 3.21278C7.4193 3.21278 7.76753 3.56101 7.76753 3.99056V8.65722C7.76753 9.08678 7.4193 9.435 6.98975 9.435C6.56019 9.435 6.21197 9.08678 6.21197 8.65723V3.99056ZM6.98975 10.2128C6.56019 10.2128 6.21197 10.561 6.21197 10.9906C6.21197 11.4201 6.56019 11.7683 6.98975 11.7683C7.4193 11.7683 7.76753 11.4201 7.76753 10.9906C7.76753 10.561 7.4193 10.2128 6.98975 10.2128Z" fill="#66CCBA"/>
</svg>
