<svg width="18" height="18" viewBox="0 0 18 18" fill="none" xmlns="http://www.w3.org/2000/svg">
<path fill-rule="evenodd" clip-rule="evenodd" d="M16.885 12.3628C16.054 12.495 15.5582 13.3591 15.8556 14.1429C16.2617 15.2101 15.2135 16.2584 14.1463 15.8523C13.3624 15.5548 12.4983 16.0554 12.3661 16.8817C12.1819 18.015 10.7512 18.3975 10.0287 17.5097C9.49984 16.8581 8.50349 16.8581 7.97463 17.5097C7.25216 18.3927 5.8214 18.0103 5.63724 16.8817C5.50031 16.0506 4.6409 15.5548 3.85705 15.8523C2.78988 16.2584 1.7416 15.2101 2.14769 14.1429C2.44517 13.3591 1.94464 12.495 1.11829 12.3628C-0.014987 12.1786 -0.397469 10.7478 0.490267 10.0254C1.1419 9.4965 1.1419 8.50016 0.490267 7.9713C-0.392747 7.24883 -0.010265 5.81807 1.11829 5.63391C1.94936 5.49697 2.44517 4.63757 2.14769 3.85372C1.7416 2.78655 2.78988 1.73826 3.85705 2.14436C4.6409 2.44184 5.50503 1.94131 5.63724 1.11496C5.8214 -0.0135957 7.25216 -0.39608 7.97463 0.486935C8.50349 1.13857 9.49984 1.13857 10.0287 0.486935C10.7512 -0.39608 12.1819 -0.0135957 12.3661 1.11496C12.503 1.94603 13.3624 2.44184 14.1463 2.14436C15.2135 1.73826 16.2617 2.78655 15.8556 3.85372C15.5582 4.63757 16.0587 5.50169 16.885 5.63391C18.0183 5.81807 18.4008 7.24883 17.5131 7.9713C16.8614 8.50016 16.8614 9.4965 17.5131 10.0254C18.3961 10.7478 18.0136 12.1786 16.885 12.3628ZM7.99023 4.48682C7.99023 3.93454 8.43794 3.48682 8.99023 3.48682C9.54251 3.48682 9.99023 3.93454 9.99023 4.48682V10.4868C9.99023 11.0391 9.54251 11.4868 8.99023 11.4868C8.43794 11.4868 7.99023 11.0391 7.99023 10.4868V4.48682ZM8.99023 12.4868C8.43794 12.4868 7.99023 12.9345 7.99023 13.4868C7.99023 14.0391 8.43794 14.4868 8.99023 14.4868C9.54251 14.4868 9.99023 14.0391 9.99023 13.4868C9.99023 12.9345 9.54251 12.4868 8.99023 12.4868Z" fill="#ADB4BA"/>
</svg>
