<svg width="20" height="20" viewBox="0 0 20 20" fill="none" xmlns="http://www.w3.org/2000/svg">
<path fill-rule="evenodd" clip-rule="evenodd" d="M18.7612 13.7364C17.8377 13.8833 17.2868 14.8434 17.6174 15.7144C18.0686 16.9001 16.9038 18.0649 15.7181 17.6137C14.8471 17.2831 13.887 17.8393 13.7401 18.7575C13.5355 20.0167 11.9457 20.4416 11.143 19.4553C10.5554 18.7312 9.44833 18.7312 8.8607 19.4553C8.05796 20.4364 6.46822 20.0114 6.2636 18.7575C6.11145 17.834 5.15656 17.2831 4.28561 17.6137C3.09987 18.0649 1.93511 16.9001 2.38632 15.7144C2.71686 14.8434 2.16071 13.8833 1.24255 13.7364C-0.0166522 13.5318 -0.441632 11.942 0.544741 11.1393C1.26878 10.5517 1.26878 9.44462 0.544741 8.857C-0.436385 8.05426 -0.0114055 6.46452 1.24255 6.2599C2.16596 6.10775 2.71686 5.15286 2.38632 4.28191C1.93511 3.09616 3.09987 1.9314 4.28561 2.38262C5.15656 2.71316 6.1167 2.15701 6.2636 1.23884C6.46822 -0.0151082 8.05796 -0.440088 8.8607 0.541038C9.44833 1.26508 10.5554 1.26508 11.143 0.541038C11.9457 -0.440088 13.5355 -0.0151082 13.7401 1.23884C13.8923 2.16226 14.8471 2.71316 15.7181 2.38262C16.9038 1.9314 18.0686 3.09616 17.6174 4.28191C17.2868 5.15286 17.843 6.11299 18.7612 6.2599C20.0204 6.46452 20.4453 8.05426 19.459 8.857C18.7349 9.44462 18.7349 10.5517 19.459 11.1393C20.4401 11.942 20.0151 13.5318 18.7612 13.7364ZM8.87785 4.98652C8.87785 4.37287 9.37531 3.87541 9.98896 3.87541C10.6026 3.87541 11.1001 4.37287 11.1001 4.98652V11.6532C11.1001 12.2668 10.6026 12.7643 9.98896 12.7643C9.37531 12.7643 8.87785 12.2668 8.87785 11.6532V4.98652ZM9.98901 13.8753C9.37536 13.8753 8.8779 14.3728 8.8779 14.9864C8.8779 15.6001 9.37536 16.0976 9.98901 16.0976C10.6027 16.0976 11.1001 15.6001 11.1001 14.9864C11.1001 14.3728 10.6027 13.8753 9.98901 13.8753Z" fill="#FF881A"/>
</svg>
