<svg width="64" height="64" viewBox="0 0 64 64" fill="none" xmlns="http://www.w3.org/2000/svg">
<circle cx="32" cy="31.9997" r="26.6667" fill="#FFE812"/>
<path d="M32 21.333C24.6362 21.333 18.6667 25.9235 18.6667 31.5861C18.6667 35.247 21.1623 38.4593 24.9164 40.2733C24.7122 40.9602 23.604 44.6926 23.5598 44.9858C23.5598 44.9858 23.5333 45.206 23.6796 45.2901C23.8259 45.3741 23.9979 45.3089 23.9979 45.3089C24.4174 45.2517 28.8624 42.2065 29.6318 41.6778C30.4004 41.7839 31.1918 41.8391 32 41.8391C39.3638 41.8391 45.3333 37.2487 45.3333 31.5861C45.3333 25.9235 39.3638 21.333 32 21.333Z" fill="#381F1F"/>
</svg>
