<svg width="25" height="24" viewBox="0 0 25 24" fill="none" xmlns="http://www.w3.org/2000/svg">
<rect x="2.5" y="2" width="20" height="20" rx="3" fill="#ADB4BA"/>
<path fill-rule="evenodd" clip-rule="evenodd" d="M7.61844 7.24466C7.45474 7.20837 7.27133 7.22316 7.09016 7.26707C6.60594 7.38813 6.35038 7.76474 6.49834 8.28932L8.66387 16.131C8.78492 16.5849 9.06481 16.8194 9.37875 16.9084C9.06476 16.8195 8.78482 16.5849 8.66377 16.131L6.49823 8.28929C6.35028 7.76472 6.60584 7.38811 7.09006 7.26705C7.27126 7.22312 7.45471 7.20834 7.61844 7.24466ZM9.79367 14.3687L9.79372 14.369L11.5557 8.03376C11.7171 7.44193 12.161 7.22672 12.5914 7.22672C12.6613 7.22672 12.7319 7.23276 12.8019 7.24561C12.7319 7.23275 12.6612 7.2267 12.5913 7.2267C12.1609 7.2267 11.717 7.44191 11.5556 8.03373L9.79367 14.3687ZM15.3622 14.3553L15.3622 14.3555L17.0705 7.81855C17.1915 7.33433 17.6085 7.15947 18.0523 7.25362C18.0523 7.25362 18.0523 7.25361 18.0522 7.2536C17.6084 7.15945 17.1914 7.3343 17.0704 7.81852L15.3622 14.3553ZM15.1195 16.9259C14.7842 16.8531 14.4702 16.6166 14.34 16.1175L12.578 9.54022L12.5779 9.5404L14.3399 16.1175C14.4701 16.6166 14.7841 16.8531 15.1195 16.9259ZM6.36534 7.5107C6.22111 7.7488 6.19523 8.04033 6.2823 8.34954L8.44742 16.1897C8.54039 16.5376 8.7199 16.7892 8.95218 16.9518C9.18201 17.1127 9.44792 17.1756 9.69946 17.1756C10.1972 17.1756 10.7583 16.9104 10.9514 16.2034L12.5735 10.3901L14.1232 16.1748C14.2156 16.5287 14.3943 16.7839 14.6247 16.9488C14.8529 17.1121 15.116 17.1756 15.3621 17.1756C15.6081 17.1756 15.8701 17.1122 16.0973 16.9537C16.327 16.7936 16.5072 16.5454 16.6007 16.2034L18.8197 8.26859C18.8991 7.98297 18.8817 7.70312 18.7492 7.47297C18.6158 7.24121 18.3837 7.09159 18.0975 7.03404C17.8361 6.97885 17.5658 6.99918 17.3354 7.121C17.1003 7.24534 16.9281 7.46458 16.8532 7.76297L16.8529 7.76415L15.356 13.4923L13.8298 7.97444C13.7364 7.63225 13.5562 7.38457 13.3265 7.22439C13.0993 7.06599 12.8373 7.00252 12.5913 7.00252C12.3398 7.00252 12.0745 7.06539 11.8452 7.22385C11.6132 7.3841 11.4328 7.63264 11.3394 7.97475L9.8045 13.4932L8.35661 7.73694L8.35606 7.73483C8.26636 7.39232 8.0709 7.17194 7.80757 7.06849C7.5586 6.97068 7.28096 6.9901 7.03724 7.04918L7.03569 7.04957C6.75012 7.12096 6.5086 7.27422 6.36534 7.5107Z" fill="white"/>
<path d="M7.49486 11.3201H5.5" stroke="white" stroke-width="1.34124" stroke-linecap="round"/>
<path d="M19.5 11.3201H17.0223" stroke="white" stroke-width="1.63391" stroke-linecap="round"/>
</svg>
