<svg width="25" height="24" viewBox="0 0 25 24" fill="none" xmlns="http://www.w3.org/2000/svg">
<g clip-path="url(#clip0_990_21358)">
<path d="M17.9314 5.92821C16.2723 7.54317 13.0785 6.95206 13.0785 6.95206C13.0785 6.95206 12.5736 3.74334 14.2327 2.12838C15.8904 0.514827 19.0842 1.10594 19.0842 1.10594C19.0842 1.10594 19.5891 4.31466 17.93 5.92962L17.9314 5.92821Z" fill="#ADB4BA"/>
<path d="M12.9993 22.9986C17.141 22.9986 20.4986 19.6417 20.4986 15.5008C20.4986 11.3598 17.141 8.00293 12.9993 8.00293C8.85755 8.00293 5.5 11.3598 5.5 15.5008C5.5 19.6417 8.85755 22.9986 12.9993 22.9986Z" fill="#ADB4BA"/>
</g>
<defs>
<clipPath id="clip0_990_21358">
<rect width="15" height="22" fill="white" transform="translate(5.5 1)"/>
</clipPath>
</defs>
</svg>
