<svg width="36" height="36" viewBox="0 0 36 36" fill="none" xmlns="http://www.w3.org/2000/svg">
<circle cx="18" cy="18" r="16.5" fill="#F2D8FF" stroke="white" stroke-width="3"/>
<path fill-rule="evenodd" clip-rule="evenodd" d="M22.4314 9.8969C22.4314 10.5053 22.0399 11.0313 21.4976 11.2341V12.5323C22.755 13.0374 23.7569 13.8314 24.3378 14.8635C24.5007 14.8024 24.6988 14.7571 24.9166 14.7074C25.1577 14.6523 25.4229 14.5917 25.6912 14.498C25.8527 14.443 26.0284 14.361 26.2082 14.2771L26.2082 14.2771L26.2083 14.277C26.8608 13.9726 27.568 13.6425 27.8475 14.481C28.2041 15.5507 27.6268 16.7222 26.5571 17.0787C25.9844 17.2697 25.3824 17.1928 24.892 16.916C24.8929 16.9531 24.8933 16.9905 24.8933 17.0279C24.8933 17.6392 24.7744 18.2334 24.5707 18.7767V18.7937C23.7552 20.4561 23.8088 21.8577 23.8218 22.1957C23.8228 22.2237 23.8236 22.2443 23.8236 22.2573C23.8236 25.7549 21.2089 28.1149 18 28.1149C14.7911 28.1149 12.1764 25.7549 12.1764 22.2573C12.1764 22.2444 12.1772 22.2237 12.1782 22.1958C12.1912 21.8577 12.2449 20.4548 11.4293 18.7767C11.2086 18.2334 11.1067 17.6561 11.1067 17.0279C11.1067 16.9904 11.1072 16.9531 11.108 16.916C10.6176 17.1928 10.0156 17.2697 9.44283 17.0787C8.37319 16.7222 7.79592 15.5507 8.15246 14.481C8.43196 13.6425 9.13923 13.9726 9.79172 14.277L9.79173 14.277C9.9716 14.361 10.1473 14.443 10.3087 14.498C10.5771 14.5917 10.8423 14.6523 11.0833 14.7074C11.3012 14.7571 11.4993 14.8024 11.6623 14.8636C12.2431 13.8314 13.245 13.0374 14.5024 12.5323V11.2404C13.9514 11.0423 13.5516 10.5117 13.5516 9.89695C13.5516 9.11594 14.1968 8.47076 14.9778 8.47076C15.7588 8.47076 16.404 9.09896 16.404 9.89695C16.404 10.5054 16.0125 11.0313 15.4702 11.2341V12.2138C16.2537 12.008 17.1072 11.9004 18 11.9004C18.8928 11.9004 19.7463 12.008 20.5298 12.2138V11.2403C19.9787 11.0422 19.579 10.5116 19.579 9.8969C19.579 9.11589 20.2242 8.4707 21.0052 8.4707C21.7862 8.4707 22.4314 9.09891 22.4314 9.8969Z" fill="#DDA4F9"/>
<path d="M17.219 22.9367C17.219 23.2084 16.9983 23.4291 16.7266 23.4291C16.455 23.4291 16.2343 23.2084 16.2343 22.9367C16.2343 22.6651 16.455 22.4443 16.7266 22.4443C16.9983 22.4443 17.219 22.6651 17.219 22.9367Z" fill="#F2D8FF"/>
<path d="M19.7488 22.9367C19.7488 23.2084 19.5281 23.4291 19.2564 23.4291C18.9848 23.4291 18.7641 23.2084 18.7641 22.9367C18.7641 22.6651 18.9848 22.4443 19.2564 22.4443C19.5281 22.4443 19.7488 22.6651 19.7488 22.9367Z" fill="#F2D8FF"/>
<path d="M14.7622 19.3702C14.7622 19.7514 14.4707 20.0654 14.0894 20.0654C13.7306 20.0654 13.4167 19.7514 13.4167 19.3702V18.2713C13.4167 17.8901 13.7082 17.5762 14.0894 17.5762C14.4482 17.5762 14.7622 17.8901 14.7622 18.2713V19.3702Z" fill="#F2D8FF"/>
<path d="M22.7036 19.3702C22.7036 19.7514 22.412 20.0654 22.0308 20.0654C21.672 20.0654 21.3581 19.7514 21.3581 19.3702V18.2713C21.3581 17.8901 21.6496 17.5762 22.0308 17.5762C22.3896 17.5762 22.7036 17.8901 22.7036 18.2713V19.3702Z" fill="#F2D8FF"/>
</svg>
