<svg width="36" height="36" viewBox="0 0 36 36" fill="none" xmlns="http://www.w3.org/2000/svg">
<circle cx="18" cy="18" r="16.5" fill="#FFEAF0" stroke="white" stroke-width="3"/>
<path fill-rule="evenodd" clip-rule="evenodd" d="M23.0309 9.35253C23.2547 8.81236 23.4967 8.22818 24.1392 8.57512C24.9473 9.03689 25.2442 10.0594 24.7989 10.851C24.4371 11.521 23.6941 11.8426 22.986 11.7007C23.861 12.7583 24.3866 14.1562 24.3866 15.7821C24.3866 15.7953 24.3855 15.8176 24.3841 15.8485C24.3673 16.2047 24.2968 17.7009 25.1617 19.4763C25.3761 20.07 25.508 20.6966 25.4915 21.3398C25.4915 24.7206 22.2591 26.2049 18.2516 26.2049C14.2606 26.2049 11.0118 24.7206 11.0118 21.3398C11.0118 20.6966 11.1437 20.07 11.3581 19.4927V19.4763C12.2114 17.7087 12.1496 16.2087 12.1352 15.8606C12.1341 15.832 12.1332 15.8111 12.1332 15.7986C12.1332 14.1709 12.6585 12.7728 13.5318 11.7142C12.8193 11.8634 12.0687 11.542 11.7044 10.8675C11.2592 10.0429 11.556 9.02038 12.3806 8.5751C13.0181 8.22381 13.2656 8.83739 13.4874 9.38739L13.4874 9.3874C13.5468 9.53454 13.6043 9.67714 13.6669 9.79549C13.7779 9.9936 13.9022 10.1717 14.0155 10.3342C14.1639 10.5469 14.2936 10.7329 14.3502 10.9017C15.414 10.0369 16.7804 9.54822 18.2681 9.54822C19.7489 9.54822 21.1063 10.0323 22.1643 10.8882C22.2198 10.7221 22.3448 10.5396 22.4876 10.3312C22.6014 10.1651 22.7264 9.98263 22.8364 9.77902C22.9056 9.65519 22.9675 9.50563 23.0309 9.35253Z" fill="#F6A3BB"/>
<path d="M17.3647 20.1177C17.3647 20.4751 17.0868 20.753 16.7294 20.753C16.3721 20.753 16.0941 20.4751 16.0941 20.1177C16.0941 19.7604 16.3721 19.4824 16.7294 19.4824C17.0868 19.4824 17.3647 19.7604 17.3647 20.1177Z" fill="#FFEAF0"/>
<path d="M20.1683 20.1177C20.1683 20.4751 19.8904 20.753 19.533 20.753C19.1757 20.753 18.8977 20.4751 18.8977 20.1177C18.8977 19.7604 19.1757 19.4824 19.533 19.4824C19.8904 19.4824 20.1683 19.7604 20.1683 20.1177Z" fill="#FFEAF0"/>
<path d="M15.3742 17.9135C15.3742 18.3095 15.0714 18.6356 14.6753 18.6356C14.3026 18.6356 13.9765 18.3095 13.9765 17.9135V16.772C13.9765 16.3759 14.2793 16.0498 14.6753 16.0498C15.0481 16.0498 15.3742 16.3759 15.3742 16.772V17.9135Z" fill="#FFEAF0"/>
<path d="M22.5742 17.9135C22.5742 18.3095 22.2714 18.6356 21.8753 18.6356C21.5026 18.6356 21.1765 18.3095 21.1765 17.9135V16.772C21.1765 16.3759 21.4793 16.0498 21.8753 16.0498C22.2481 16.0498 22.5742 16.3759 22.5742 16.772V17.9135Z" fill="#FFEAF0"/>
</svg>
