<svg width="36" height="36" viewBox="0 0 36 36" fill="none" xmlns="http://www.w3.org/2000/svg">
<circle cx="18" cy="18" r="16.5" fill="#C1D8FF" stroke="white" stroke-width="3"/>
<path d="M13.5897 14.7358C13.1582 15.8644 11.4155 16.2129 9.72264 15.4827C8.02975 14.769 7.00075 13.2587 7.43227 12.1301C7.86379 11.0015 9.60646 10.653 11.2993 11.3832C13.0088 12.0969 14.0378 13.6072 13.5897 14.7358Z" fill="#90B6EF"/>
<path d="M12.9923 16.4785C12.7433 17.5739 11.2164 18.1382 9.57332 17.7399C7.93023 17.3416 6.78504 16.13 7.03399 15.018C7.28295 13.9226 8.80986 13.3583 10.453 13.7566C12.096 14.155 13.2412 15.3831 12.9923 16.4785Z" fill="#90B6EF"/>
<path d="M13.2081 16.5947C13.54 17.5241 12.6935 18.7191 11.2994 19.2834C9.90527 19.8311 8.51113 19.5323 8.17919 18.6029C7.84725 17.6735 8.69369 16.4785 10.0878 15.9142C11.4654 15.3665 12.8595 15.6653 13.2081 16.5947Z" fill="#90B6EF"/>
<path d="M21.8882 14.7358C22.3197 15.8644 24.0624 16.2129 25.7553 15.4827C27.4482 14.769 28.4772 13.2587 28.0457 12.1301C27.6141 11.0015 25.8881 10.653 24.1786 11.3832C22.4691 12.0969 21.4401 13.6072 21.8882 14.7358Z" fill="#90B6EF"/>
<path d="M22.4857 16.4785C22.7346 17.5739 24.2616 18.1382 25.9046 17.7399C27.5477 17.3416 28.6929 16.13 28.444 15.018C28.195 13.9226 26.6681 13.3583 25.025 13.7566C23.3819 14.155 22.2367 15.3831 22.4857 16.4785Z" fill="#90B6EF"/>
<path d="M22.2866 16.5937C21.9546 17.5231 22.8011 18.7181 24.1952 19.2824C25.5893 19.8301 26.9835 19.5314 27.3154 18.6019C27.6474 17.6725 26.8009 16.4775 25.4068 15.9132C24.0126 15.3655 22.6185 15.6643 22.2866 16.5937Z" fill="#90B6EF"/>
<path d="M25.0748 20.0466C25.0748 24.4614 21.772 26.4198 17.7058 26.4198C13.6395 26.4198 10.3368 24.478 10.3368 20.0466C10.3368 15.6319 13.6395 12.0469 17.7058 12.0469C21.772 12.0303 25.0748 15.6153 25.0748 20.0466Z" fill="#90B6EF"/>
<path d="M19.2493 20.7932C19.4319 22.2537 18.5523 22.7018 17.7058 22.7018C16.8594 22.7018 15.9798 22.2537 16.1623 20.7932C16.3615 19.2995 16.7432 18.1211 17.7058 18.1211C18.7017 18.1211 19.0834 19.3493 19.2493 20.7932Z" fill="#C1D8FF"/>
<path d="M14.3426 20.1244C14.3426 20.5078 14.0494 20.8235 13.6661 20.8235C13.3052 20.8235 12.9895 20.5078 12.9895 20.1244V19.0194C12.9895 18.636 13.2827 18.3203 13.6661 18.3203C14.0269 18.3203 14.3426 18.636 14.3426 19.0194V20.1244Z" fill="#C1D8FF"/>
<path d="M22.3287 20.1244C22.3287 20.5078 22.0356 20.8235 21.6522 20.8235C21.2914 20.8235 20.9756 20.5078 20.9756 20.1244V19.0194C20.9756 18.636 21.2688 18.3203 21.6522 18.3203C22.013 18.3203 22.3287 18.636 22.3287 19.0194V20.1244Z" fill="#C1D8FF"/>
</svg>
