<svg width="24" height="24" viewBox="0 0 24 24" fill="none" xmlns="http://www.w3.org/2000/svg">
<path d="M7.1998 14.8638H7.9998M7.1998 17.3184H7.9998M15.9998 17.3184H16.7998M15.9998 14.8638H16.7998M10.3998 20.182V16.9093C10.3998 16.0093 11.1198 15.2729 11.9998 15.2729C12.8798 15.2729 13.5998 16.0093 13.5998 16.9093V20.182M11.9998 6.2729H15.8718C15.9198 6.2729 15.9358 6.2729 15.9598 6.26472C15.9758 6.26472 15.9838 6.24836 15.9918 6.232C15.9998 6.21563 15.9998 6.19109 15.9998 6.142V3.94927C15.9998 3.90018 15.9998 3.88381 15.9918 3.85927C15.9918 3.8429 15.9758 3.83472 15.9598 3.82654C15.9438 3.81836 15.9198 3.81836 15.8718 3.81836H12.1278C12.0798 3.81836 12.0638 3.81836 12.0398 3.82654C12.0238 3.82654 12.0158 3.8429 12.0078 3.85927C11.9998 3.87563 11.9998 3.90018 11.9998 3.94927V6.2729ZM11.9998 6.2729V8.47381M11.9918 8.47381C12.1438 8.47381 12.3038 8.49836 12.4558 8.54745C12.7998 8.65381 13.1038 8.932 13.7038 9.48836L15.9918 11.5911L17.2558 11.9102C17.9518 12.0902 18.2958 12.172 18.5518 12.3765C18.7758 12.5484 18.9598 12.7856 19.0718 13.0556C19.1998 13.3584 19.1998 13.7265 19.1998 14.4547V17.5638C19.1998 18.4802 19.1998 18.9384 19.0238 19.2902C18.8718 19.6011 18.6238 19.8465 18.3278 20.002C17.9838 20.182 17.5358 20.182 16.6398 20.182H7.3598C6.4638 20.182 6.0158 20.182 5.6718 20.002C5.3678 19.8465 5.1278 19.5929 4.9758 19.2902C4.7998 18.9384 4.7998 18.4802 4.7998 17.5638V14.4547C4.7998 13.7265 4.7998 13.3584 4.9278 13.0556C5.0398 12.7856 5.2158 12.5565 5.4478 12.3765C5.7038 12.1802 6.0558 12.0902 6.7438 11.9102L8.0078 11.5911L10.2958 9.48836C10.9038 8.932 11.1998 8.65381 11.5438 8.54745C11.6958 8.49836 11.8478 8.47381 12.0078 8.47381H11.9918ZM12.0158 12.8184C11.6878 12.8184 11.4158 12.5402 11.4158 12.2047C11.4158 11.8693 11.6878 11.5911 12.0158 11.5911C12.3438 11.5911 12.6158 11.8693 12.6158 12.2047C12.6158 12.5402 12.3438 12.8184 12.0158 12.8184Z" stroke="#262C31" stroke-width="1.5" stroke-linecap="round" stroke-linejoin="round"/>
</svg>
