<svg width="24" height="24" viewBox="0 0 24 24" fill="none" xmlns="http://www.w3.org/2000/svg">
<path d="M8.88889 16C9.31667 16 9.66667 15.64 9.66667 15.2C9.66667 15.144 9.66667 15.096 9.66667 15.04C9.65889 14.992 9.64333 14.944 9.62 14.896C9.60444 14.848 9.58111 14.8 9.55 14.752L9.45667 14.632C9.37889 14.56 9.29333 14.504 9.2 14.464C9.05222 14.392 8.88889 14.368 8.73333 14.4L8.59333 14.448L8.45333 14.52C8.41444 14.552 8.37556 14.584 8.33667 14.616L8.24333 14.736C8.21222 14.784 8.18889 14.832 8.17333 14.88C8.15 14.928 8.13444 14.976 8.12667 15.024C8.12667 15.08 8.12667 15.128 8.12667 15.184C8.12667 15.624 8.47667 15.984 8.90444 15.984L8.88889 16ZM15.1111 16C15.5389 16 15.8889 15.64 15.8889 15.2C15.8889 15.144 15.8889 15.096 15.8889 15.04C15.8811 14.992 15.8656 14.944 15.8422 14.896C15.8267 14.848 15.8033 14.8 15.7722 14.752L15.6789 14.632C15.6011 14.56 15.5156 14.504 15.4222 14.464C15.2356 14.384 15.0178 14.384 14.8311 14.464C14.7378 14.504 14.6522 14.56 14.5744 14.632L14.4811 14.752C14.45 14.8 14.4267 14.848 14.4111 14.896C14.3878 14.944 14.3722 14.992 14.3644 15.04C14.3644 15.096 14.3644 15.144 14.3644 15.2C14.3644 15.408 14.45 15.608 14.59 15.76C14.73 15.904 14.9167 15.992 15.1111 16ZM12.7778 6.4H11.2222C10.7944 6.4 10.4444 6.76 10.4444 7.2C10.4444 7.64 10.7944 8 11.2222 8H12.7778C13.2056 8 13.5556 7.64 13.5556 7.2C13.5556 6.76 13.2056 6.4 12.7778 6.4ZM16.6667 4H7.33333C6.04222 4 5 5.072 5 6.4V16C5 17.016 5.62222 17.92 6.55556 18.256V19.2C6.55556 19.64 6.90556 20 7.33333 20C7.76111 20 8.11111 19.64 8.11111 19.2V18.4H15.8889V19.2C15.8889 19.64 16.2389 20 16.6667 20C17.0944 20 17.4444 19.64 17.4444 19.2V18.256C18.3778 17.92 19 17.016 19 16V6.4C19 5.072 17.9578 4 16.6667 4ZM17.4444 16C17.4444 16.44 17.0944 16.8 16.6667 16.8H7.33333C6.90556 16.8 6.55556 16.44 6.55556 16V13.6H17.4444V16ZM17.4444 12H6.55556V6.4C6.55556 5.96 6.90556 5.6 7.33333 5.6H16.6667C17.0944 5.6 17.4444 5.96 17.4444 6.4V12Z" fill="#262C31"/>
</svg>
